<svg width="54" height="16" viewBox="0 0 54 16" fill="none" xmlns="http://www.w3.org/2000/svg">
<path d="M3.24732 0.626796C3.13226 0.684354 2.56656 1.8451 1.77074 3.64856C1.06122 5.26017 0.457162 6.65115 0.428398 6.74708C0.380457 6.90056 0.447574 6.91016 1.34886 6.89097L2.32686 6.86219L2.51862 6.38255C2.62409 6.12354 2.74874 5.85494 2.80627 5.78779C2.87338 5.70145 3.28567 5.66308 4.22532 5.66308C5.70189 5.66308 5.64437 5.6343 6.00872 6.43051L6.22924 6.91016H7.19765C7.725 6.91016 8.15647 6.88138 8.15647 6.8526C8.15647 6.73748 5.52931 0.809062 5.43343 0.70354C5.29919 0.559646 3.48703 0.492496 3.24732 0.626796ZM4.94443 3.93635C5.00196 4.11862 4.95402 4.12821 4.2349 4.12821H3.46785L3.75549 3.42793C3.91849 3.0538 4.09108 2.63172 4.13902 2.49741C4.2349 2.27678 4.26367 2.31515 4.5609 3.00584C4.74308 3.41833 4.91566 3.84042 4.94443 3.93635Z" fill="#b4bfc3"/>
<path d="M9.62173 0.556888L8.44238 0.585667V3.75133V6.91699L9.28614 6.88821L10.1203 6.85943L10.1683 4.89289C10.197 3.73214 10.245 3.00308 10.2929 3.1182C10.3408 3.22372 10.6572 4.0679 11.0024 4.98882C11.3476 5.90974 11.6736 6.72513 11.7311 6.79228C11.8749 6.97455 13.2365 6.9074 13.3419 6.71554C13.3899 6.6388 13.7446 5.70828 14.1186 4.65306L14.8185 2.73448L14.8665 4.79696L14.9144 6.85943L15.7582 6.88821L16.5923 6.91699V3.74174V0.566481L15.2404 0.59526L13.8789 0.624039L13.2077 2.47547C12.8434 3.49232 12.5269 4.30772 12.5078 4.28853C12.4886 4.26935 12.1722 3.44436 11.8174 2.44669C11.3284 1.10368 11.1079 0.624039 10.9737 0.585667C10.8778 0.556888 10.2641 0.537703 9.62173 0.556888Z" fill="#b4bfc3"/>
<path d="M17.8649 0.652479C17.769 0.758001 17.7402 1.41032 17.7402 3.72221C17.7402 5.34341 17.7786 6.72479 17.8169 6.79194C17.8841 6.87828 18.4881 6.90706 20.5304 6.88787L23.1575 6.85909V6.13963V5.42016L21.355 5.39138L19.5524 5.37219L19.5812 4.9597L19.6099 4.5568L21.3358 4.50883L23.0617 4.46087V3.7414V3.02193L21.3358 2.97396L19.6099 2.926L19.5812 2.55188C19.562 2.32165 19.6003 2.14897 19.677 2.09142C19.7442 2.04345 20.5112 2.01467 21.3837 2.02427C22.2563 2.02427 23.0233 2.03386 23.0904 2.02427C23.263 2.00508 23.2534 0.681258 23.0712 0.614107C22.9945 0.585328 21.8248 0.55655 20.4633 0.546957C18.5265 0.527771 17.9704 0.55655 17.8649 0.652479Z" fill="#b4bfc3"/>
<path d="M31.1002 0.548106C31.0044 0.586478 30.9756 1.31554 30.9756 3.75214V6.9082H31.8385H32.7014V3.74254V0.576885H32.0878C31.7522 0.576885 31.4166 0.557699 31.3399 0.538513C31.2728 0.509734 31.1578 0.519327 31.1002 0.548106Z" fill="#b4bfc3"/>
<path d="M40.7552 0.662406C40.5922 0.796707 37.9746 6.61961 37.9746 6.83066C37.9746 6.87862 38.3965 6.89781 38.9143 6.88821L39.8443 6.85943L40.132 6.28386L40.4196 5.70828H41.8099H43.2002L43.4878 6.28386L43.7755 6.85943L44.763 6.88821L45.7506 6.91699L45.5972 6.55246C45.5205 6.35101 44.8973 4.94085 44.2261 3.42517C43.2865 1.27635 42.9701 0.652813 42.8166 0.624034C42.7112 0.604849 42.2414 0.566477 41.7715 0.547291C41.1004 0.518512 40.8894 0.547291 40.7552 0.662406ZM42.203 3.18535C42.3852 3.61703 42.5482 4.00074 42.5578 4.04871C42.5769 4.08708 42.2414 4.12545 41.8099 4.12545C41.3784 4.12545 41.0428 4.08708 41.062 4.04871C41.0812 4.01034 41.2346 3.61703 41.4168 3.18535C41.5894 2.75366 41.7619 2.39873 41.8003 2.39873C41.8386 2.39873 42.0208 2.75366 42.203 3.18535Z" fill="#b4bfc3"/>
<path d="M46.0678 0.604848C45.9528 0.671998 45.9336 1.19961 45.9336 3.79929V6.91699L46.8253 6.88821L47.7074 6.85943L47.7362 4.98881L47.7554 3.12779L48.8676 4.79696C49.4812 5.71788 50.0757 6.57165 50.1812 6.68676C50.3633 6.88821 50.4592 6.9074 51.3701 6.9074H52.3577V3.75133V0.595255L51.6194 0.556883C51.2167 0.537698 50.8332 0.566476 50.766 0.624034C50.6702 0.700777 50.6318 1.14205 50.6126 2.44669L50.5839 4.17342L49.4141 2.4275C48.7717 1.46821 48.1964 0.662406 48.1389 0.624034C47.9855 0.528105 46.2308 0.508919 46.0678 0.604848Z" fill="#b4bfc3"/>
<path d="M24.2346 0.644025C24.1579 0.768733 24.1866 6.68757 24.2633 6.80268C24.3017 6.87942 24.5989 6.9082 25.1359 6.88902L25.9413 6.86024L25.9892 5.80502C26.0563 4.28934 26.1043 4.29893 27.8685 6.26548L28.4438 6.9082H29.5369H30.6203L30.4286 6.68757C30.3231 6.57245 29.8629 6.06403 29.4122 5.56519L28.578 4.65387L28.9424 4.48119C29.93 3.97277 30.3231 3.15737 30.093 2.07337C29.9683 1.46902 29.393 0.845477 28.8177 0.682397C28.3863 0.567282 24.3017 0.52891 24.2346 0.644025ZM28.1849 2.24604C28.4438 2.47627 28.4438 2.80243 28.1849 3.03266C28.0219 3.17656 27.8014 3.22452 27.1302 3.2533C26.5453 3.27249 26.2289 3.24371 26.133 3.16696C25.9509 3.01348 25.9317 2.15011 26.1139 2.07337C26.1714 2.04459 26.622 2.035 27.111 2.04459C27.811 2.06378 28.0315 2.11174 28.1849 2.24604Z" fill="#b4bfc3"/>
<path d="M35.3187 0.777877C34.1777 1.21915 33.5449 2.27437 33.5449 3.74209C33.5449 5.68945 34.5325 6.76385 36.4022 6.88856L37.1884 6.93652L37.5336 6.25543C37.7254 5.87171 37.8788 5.52637 37.8788 5.46881C37.8788 5.41125 37.5816 5.37288 37.1405 5.37288C36.1817 5.37288 35.7981 5.19061 35.5105 4.60545C35.242 4.07784 35.2324 3.4543 35.4817 2.89791C35.7598 2.27437 36.1913 2.11129 37.6199 2.11129H38.7417V1.34386V0.576426L37.2843 0.586019C36.057 0.586019 35.7406 0.614797 35.3187 0.777877Z" fill="#b4bfc3"/>
<path d="M19.7367 8.61433C19.4394 8.6527 19.2285 8.83496 18.4614 9.77507L17.8957 10.4753L17.5985 10.1492C17.4451 9.96692 17.0711 9.55443 16.7835 9.22827L16.2466 8.63351H15.1152C14.0413 8.63351 13.9838 8.64311 14.118 8.79659C14.1947 8.89252 14.8083 9.58321 15.4795 10.341C16.1507 11.0989 16.6876 11.7608 16.6684 11.7992C16.6493 11.8471 16.0452 12.557 15.3261 13.3724C14.5974 14.1878 14.0029 14.8785 14.0029 14.9073C14.0029 14.936 14.4823 14.9648 15.0672 14.9648H16.1315L16.4383 14.6483C16.6013 14.4756 16.9849 14.0439 17.2917 13.6986L17.8478 13.0558L18.2984 13.5547C18.5477 13.8425 18.8833 14.2262 19.0367 14.4276C19.4298 14.9169 19.8709 15.0416 20.9448 14.9744L21.7981 14.9169L20.6188 13.5739C19.9668 12.8352 19.334 12.1253 19.2189 11.9814L18.9888 11.7416L20.3407 10.2259C21.079 9.39135 21.6735 8.70066 21.6543 8.68148C21.5968 8.63351 19.9955 8.57596 19.7367 8.61433Z" fill="#b4bfc3"/>
<path d="M8.44238 11.8002V14.9658H11.1271H13.8118V14.2464C13.8118 13.853 13.8022 13.5173 13.7926 13.5077C13.7734 13.4981 12.968 13.4693 11.99 13.4405L10.2162 13.383V12.9993V12.6156L11.9421 12.5676L13.6679 12.5196V11.8002V11.0807L11.9421 11.0327L10.2162 10.9848V10.601V10.2173L11.99 10.1694L13.7638 10.1214V9.40194V8.68247L11.1079 8.65369L8.44238 8.6345V11.8002Z" fill="#b4bfc3"/>
<path d="M21.9152 8.76031C21.8864 8.82746 21.8768 10.2376 21.8864 11.8972L21.9152 14.9189H22.7781H23.641L23.689 13.9597L23.7369 13.0004L25.0888 12.9524C26.3832 12.9044 26.46 12.8948 26.901 12.6167C28.1091 11.8684 28.2625 10.0266 27.1982 9.14402C26.9969 8.98094 26.6805 8.80827 26.4791 8.74112C25.9422 8.58764 21.9727 8.59723 21.9152 8.76031ZM25.9134 10.3335C26.0093 10.4199 26.086 10.6213 26.086 10.8036C26.086 11.312 25.8175 11.4271 24.6861 11.3984L23.7369 11.3696L23.7082 10.9091C23.6602 10.228 23.7465 10.1705 24.8204 10.1705C25.5395 10.1705 25.7696 10.2088 25.9134 10.3335Z" fill="#b4bfc3"/>
<path d="M28.5781 11.7915V14.9667H29.4411H30.304V13.969C30.304 12.5301 30.5245 12.4534 31.5121 13.5757C32.7969 15.0435 32.8353 15.0626 34.1105 14.9763L34.8967 14.9187L33.9475 13.8635C33.4201 13.2784 32.9887 12.7891 32.9887 12.7603C32.9887 12.7316 33.19 12.6069 33.4393 12.4726C34.5899 11.8682 34.8775 10.3141 34.0242 9.34527C33.4681 8.71213 33.3818 8.69295 30.8601 8.65458L28.5781 8.61621V11.7915ZM32.5476 10.3525C32.7873 10.6115 32.7106 11.0432 32.4134 11.1967C32.097 11.3598 30.5725 11.3598 30.419 11.2063C30.3519 11.1391 30.304 10.9377 30.304 10.7458C30.304 10.2278 30.419 10.1703 31.4546 10.1703C32.2504 10.1703 32.4038 10.199 32.5476 10.3525Z" fill="#b4bfc3"/>
<path d="M35.3533 8.70239C35.3149 8.73117 35.2861 10.1125 35.2861 11.7529C35.2861 14.1799 35.3149 14.7747 35.4204 14.861C35.5067 14.9378 36.3025 14.9666 38.1242 14.9474L40.7035 14.9186L40.7322 14.3142C40.7514 13.9497 40.713 13.6523 40.6459 13.566C40.5596 13.4605 40.1761 13.4317 38.8146 13.4317H37.0983L37.1271 13.0192L37.1558 12.6163L38.8625 12.5875C39.7926 12.5779 40.5596 12.53 40.5692 12.4916C40.6172 11.9928 40.5884 11.187 40.5021 11.1198C40.4446 11.0814 39.6679 11.0239 38.7762 11.0143L37.1558 10.9855V10.6018V10.2181L38.8242 10.1893C39.8597 10.1797 40.55 10.1221 40.6267 10.0646C40.7514 9.94947 40.7993 9.06692 40.6939 8.78872C40.6459 8.65442 40.3199 8.63524 38.0284 8.63524C36.5901 8.63524 35.382 8.66402 35.3533 8.70239Z" fill="#b4bfc3"/>
<path d="M42.8152 8.72056C42.2974 8.85486 41.9043 9.11387 41.6358 9.51677C41.4153 9.86211 41.377 10.006 41.377 10.6391C41.377 11.5217 41.5879 11.9246 42.2111 12.2795C42.5755 12.4906 42.7768 12.5194 43.9466 12.5673C45.3081 12.6153 45.4423 12.6632 45.4519 13.0566C45.4519 13.3923 45.2506 13.4307 43.5822 13.4307C42.6905 13.4307 41.8564 13.4595 41.7317 13.4882C41.5304 13.5458 41.5112 13.5938 41.54 14.2365L41.5687 14.9176L43.6398 14.9464C45.6341 14.9655 45.7204 14.9655 46.1231 14.7449C46.7847 14.3996 47.1107 13.9199 47.1586 13.2388C47.2161 12.4426 47.1203 12.0397 46.7847 11.656C46.3724 11.1955 45.7779 11.0325 44.426 11.0325C43.3809 11.0325 43.3425 11.0229 43.1891 10.7926C43.0357 10.5624 43.0357 10.5336 43.1987 10.3609C43.3617 10.1883 43.5055 10.1691 44.8191 10.1691C45.6149 10.1691 46.3149 10.1307 46.382 10.0923C46.4874 10.0252 47.0819 8.82608 47.0819 8.68219C47.0819 8.60544 43.1412 8.64381 42.8152 8.72056Z" fill="#b4bfc3"/>
<path d="M48.8666 8.77771C48.6556 8.85446 48.3776 8.98876 48.2433 9.09428C47.2366 9.84253 47.2366 11.4541 48.2433 12.2024C48.5981 12.471 49.1063 12.5573 50.2281 12.5669C51.3115 12.5669 51.5896 12.6533 51.5896 12.9794C51.5896 13.4015 51.4554 13.4303 49.6144 13.4303C48.2338 13.4303 47.8502 13.4591 47.7639 13.5646C47.6968 13.6509 47.6585 13.9483 47.6776 14.3128L47.7064 14.9172L49.6624 14.946C51.8772 14.9747 52.2991 14.898 52.8169 14.3608C53.4497 13.7085 53.5839 12.8451 53.1716 12.0297C52.7881 11.2623 52.4046 11.0992 50.8705 11.0512C50.1897 11.0321 49.5473 10.9745 49.461 10.9265C49.2405 10.8114 49.2405 10.5236 49.461 10.3318C49.6144 10.1975 49.8733 10.1687 51.0239 10.1687C51.9923 10.1687 52.4621 10.1303 52.5676 10.044C52.6539 9.98642 52.8552 9.64108 53.0182 9.27655L53.3059 8.63382H51.2732C49.7774 8.64341 49.1446 8.68179 48.8666 8.77771Z" fill="#b4bfc3"/>
</svg>
