<svg width="122" height="36" viewBox="0 0 122 36" fill="none" xmlns="http://www.w3.org/2000/svg">
<path d="M121.322 31.1799C121.322 33.0581 119.769 34.5795 117.848 34.5795H4.15638C2.23628 34.5795 0.677734 33.0581 0.677734 31.1799V4.06909C0.677734 2.19176 2.23628 0.665039 4.15638 0.665039H117.847C119.769 0.665039 121.321 2.19176 121.321 4.06909L121.322 31.1799Z" fill="#072A38"/>
<path d="M117.481 0.706177C119.574 0.706177 121.276 2.36597 121.276 4.40574V30.8391C121.276 32.8788 119.574 34.5386 117.481 34.5386H4.51852C2.42644 34.5386 0.724092 32.8788 0.724092 30.8391V4.40574C0.724092 2.36597 2.42644 0.706177 4.51852 0.706177H117.481ZM117.481 0.000188162H4.51852C2.03446 0.000188162 0 1.98379 0 4.40574V30.8391C0 33.261 2.03446 35.2446 4.51852 35.2446H117.481C119.966 35.2446 122 33.261 122 30.8391V4.40574C122 1.98379 119.966 0.000188162 117.481 0.000188162Z" fill="#A6A6A6"/>
<path d="M27.2272 17.4316C27.201 14.5918 29.6121 13.2102 29.7224 13.1458C28.3569 11.2048 26.2404 10.9395 25.4966 10.9184C23.7191 10.736 21.9948 11.9555 21.0893 11.9555C20.1657 11.9555 18.7713 10.936 17.2684 10.966C15.3345 10.9951 13.5253 12.0868 12.533 13.782C10.4852 17.2386 12.0125 22.3182 13.9744 25.1122C14.9558 26.4806 16.1026 28.0084 17.6037 27.9547C19.0722 27.8956 19.6208 27.0418 21.3929 27.0418C23.1488 27.0418 23.6639 27.9547 25.1948 27.9203C26.7709 27.8956 27.7631 26.5458 28.7102 25.1651C29.8444 23.5967 30.2998 22.0521 30.3179 21.9728C30.2809 21.9605 27.2571 20.8353 27.2272 17.4316Z" fill="white"/>
<path d="M24.3354 9.0804C25.1252 8.11735 25.6656 6.80714 25.5156 5.47754C24.3724 5.52688 22.9428 6.24851 22.1195 7.19042C21.3911 8.02043 20.7405 9.38086 20.9085 10.6602C22.1927 10.7536 23.5112 10.0285 24.3354 9.0804Z" fill="white"/>
<path d="M48.4793 27.7581H46.427L45.3028 24.3138H41.3951L40.3243 27.7581H38.3262L42.1976 16.0322H44.5888L48.4793 27.7581ZM44.9639 22.8688L43.9472 19.8069C43.8397 19.4941 43.6381 18.7575 43.3408 17.598H43.3047C43.1863 18.0967 42.9956 18.8333 42.7335 19.8069L41.7349 22.8688H44.9639Z" fill="white"/>
<path d="M58.4351 23.4266C58.4351 24.8645 58.0366 26.0012 57.2395 26.8356C56.5256 27.5784 55.639 27.9493 54.5808 27.9493C53.4385 27.9493 52.618 27.5493 52.1182 26.7492H52.0821V31.2033H50.1554V22.0864C50.1554 21.1824 50.131 20.2546 50.084 19.303H51.7784L51.886 20.6431H51.9221C52.5647 19.6334 53.5397 19.1294 54.8483 19.1294C55.8713 19.1294 56.7253 19.5233 57.4085 20.3118C58.0935 21.1013 58.4351 22.1393 58.4351 23.4266ZM56.4723 23.4953C56.4723 22.6723 56.2825 21.9939 55.9011 21.4599C55.4845 20.9031 54.9251 20.6246 54.2238 20.6246C53.7485 20.6246 53.3165 20.7797 52.9306 21.0855C52.5439 21.3938 52.2908 21.7965 52.1724 22.2952C52.1128 22.5278 52.083 22.7182 52.083 22.8679V24.2777C52.083 24.8927 52.2764 25.4117 52.6632 25.8355C53.0499 26.2593 53.5524 26.4708 54.1705 26.4708C54.8962 26.4708 55.461 26.1977 55.865 25.6531C56.2698 25.1077 56.4723 24.3887 56.4723 23.4953Z" fill="white"/>
<path d="M68.4088 23.4266C68.4088 24.8645 68.0103 26.0012 67.2123 26.8356C66.4993 27.5784 65.6128 27.9493 64.5545 27.9493C63.4122 27.9493 62.5917 27.5493 62.0928 26.7492H62.0567V31.2033H60.13V22.0864C60.13 21.1824 60.1056 20.2546 60.0586 19.303H61.753L61.8606 20.6431H61.8967C62.5384 19.6334 63.5135 19.1294 64.8229 19.1294C65.845 19.1294 66.699 19.5233 67.384 20.3118C68.0663 21.1013 68.4088 22.1393 68.4088 23.4266ZM66.446 23.4953C66.446 22.6723 66.2553 21.9939 65.8739 21.4599C65.4573 20.9031 64.8997 20.6246 64.1976 20.6246C63.7213 20.6246 63.2902 20.7797 62.9035 21.0855C62.5167 21.3938 62.2645 21.7965 62.1461 22.2952C62.0874 22.5278 62.0567 22.7182 62.0567 22.8679V24.2777C62.0567 24.8927 62.2501 25.4117 62.6351 25.8355C63.0218 26.2585 63.5243 26.4708 64.1442 26.4708C64.8699 26.4708 65.4347 26.1977 65.8387 25.6531C66.2435 25.1077 66.446 24.3887 66.446 23.4953Z" fill="white"/>
<path d="M79.5606 24.4697C79.5606 25.4671 79.2054 26.2786 78.4924 26.9051C77.7089 27.5897 76.6181 27.9316 75.2165 27.9316C73.9224 27.9316 72.8849 27.6884 72.0996 27.2011L72.546 25.6354C73.3919 26.1341 74.32 26.3843 75.3313 26.3843C76.0569 26.3843 76.6217 26.224 77.0275 25.905C77.4315 25.5861 77.633 25.1578 77.633 24.6239C77.633 24.1481 77.4667 23.7472 77.1332 23.422C76.8016 23.0969 76.2476 22.7947 75.474 22.5154C73.3684 21.7497 72.3165 20.628 72.3165 19.1531C72.3165 18.1891 72.6852 17.3988 73.4235 16.7838C74.1592 16.1679 75.1406 15.8604 76.3678 15.8604C77.4622 15.8604 78.3713 16.0463 79.097 16.4172L78.6153 17.9486C77.9375 17.5891 77.1712 17.4093 76.3136 17.4093C75.6358 17.4093 75.1062 17.5724 74.7267 17.8966C74.4059 18.1865 74.245 18.5398 74.245 18.9583C74.245 19.4218 74.4285 19.8051 74.7972 20.1064C75.118 20.3849 75.7009 20.6862 76.5467 21.0113C77.5815 21.4175 78.3415 21.8924 78.8304 22.437C79.3175 22.9797 79.5606 23.6591 79.5606 24.4697Z" fill="white"/>
<path d="M85.9316 20.7128H83.8079V24.8179C83.8079 25.862 84.1821 26.3836 84.9321 26.3836C85.2764 26.3836 85.562 26.3546 85.7879 26.2964L85.8413 27.7229C85.4617 27.8613 84.962 27.9309 84.3429 27.9309C83.582 27.9309 82.9874 27.7044 82.5581 27.2524C82.1307 26.7995 81.9156 26.04 81.9156 24.973V20.711H80.6504V19.3013H81.9156V17.7532L83.8079 17.1963V19.3013H85.9316V20.7128Z" fill="white"/>
<path d="M95.5134 23.4605C95.5134 24.7602 95.1321 25.8272 94.3712 26.6616C93.5732 27.5207 92.5141 27.9489 91.1937 27.9489C89.9213 27.9489 88.9083 27.5374 88.1528 26.7145C87.3973 25.8915 87.0195 24.8527 87.0195 23.6006C87.0195 22.2904 87.4081 21.2172 88.188 20.3828C88.9661 19.5475 90.0162 19.1299 91.3365 19.1299C92.6089 19.1299 93.6328 19.5414 94.4055 20.3652C95.1447 21.1644 95.5134 22.1962 95.5134 23.4605ZM93.5144 23.5213C93.5144 22.7416 93.3436 22.0728 92.9975 21.5151C92.5936 20.8401 92.0161 20.5035 91.2678 20.5035C90.4934 20.5035 89.9051 20.841 89.5011 21.5151C89.155 22.0737 88.9842 22.753 88.9842 23.5566C88.9842 24.3364 89.155 25.0051 89.5011 25.562C89.9177 26.2369 90.4997 26.5735 91.2507 26.5735C91.9863 26.5735 92.5638 26.2299 92.9804 25.5444C93.3355 24.9761 93.5144 24.3002 93.5144 23.5213Z" fill="white"/>
<path d="M101.776 20.9551C101.586 20.9207 101.382 20.9031 101.169 20.9031C100.491 20.9031 99.9671 21.1524 99.5984 21.652C99.2776 22.0926 99.1167 22.6494 99.1167 23.3217V27.7581H97.1909L97.209 21.9657C97.209 20.9912 97.1846 20.1039 97.1367 19.3039H98.8149L98.8854 20.9216H98.9387C99.142 20.3656 99.4629 19.918 99.9021 19.5823C100.331 19.2801 100.795 19.1294 101.295 19.1294C101.473 19.1294 101.634 19.1417 101.776 19.1638V20.9551Z" fill="white"/>
<path d="M110.393 23.1303C110.393 23.4669 110.371 23.7506 110.323 23.9823H104.543C104.565 24.8176 104.845 25.4564 105.381 25.897C105.868 26.2908 106.498 26.4882 107.272 26.4882C108.128 26.4882 108.909 26.3551 109.611 26.0882L109.913 27.3922C109.092 27.7411 108.123 27.9147 107.005 27.9147C105.661 27.9147 104.605 27.5288 103.837 26.7578C103.071 25.9868 102.687 24.9515 102.687 23.6528C102.687 22.3778 103.043 21.3161 103.758 20.4693C104.507 19.5653 105.518 19.1133 106.79 19.1133C108.04 19.1133 108.986 19.5653 109.629 20.4693C110.138 21.1874 110.393 22.0756 110.393 23.1303ZM108.556 22.643C108.569 22.0861 108.443 21.6051 108.182 21.1989C107.848 20.6764 107.336 20.4156 106.647 20.4156C106.017 20.4156 105.504 20.6702 105.113 21.1812C104.792 21.5874 104.601 22.0747 104.543 22.6421H108.556V22.643Z" fill="white"/>
<path d="M44.3272 8.81869C44.3272 9.85576 44.0082 10.6364 43.3711 11.1607C42.781 11.6444 41.9423 11.8867 40.8561 11.8867C40.3175 11.8867 39.8566 11.8638 39.4707 11.818V6.15157C39.9741 6.07227 40.5163 6.03174 41.1019 6.03174C42.1366 6.03174 42.9165 6.25113 43.4425 6.68993C44.0317 7.18599 44.3272 7.89529 44.3272 8.81869ZM43.3286 8.84425C43.3286 8.17196 43.1461 7.65651 42.781 7.29701C42.4159 6.9384 41.8827 6.75865 41.1805 6.75865C40.8823 6.75865 40.6283 6.77804 40.4178 6.81857V11.1263C40.5344 11.1439 40.7476 11.1519 41.0576 11.1519C41.7824 11.1519 42.3418 10.9554 42.7358 10.5624C43.1298 10.1694 43.3286 9.59671 43.3286 8.84425Z" fill="white"/>
<path d="M49.6216 9.72466C49.6216 10.3635 49.4346 10.8868 49.0604 11.2974C48.6682 11.7195 48.1486 11.9301 47.4997 11.9301C46.8744 11.9301 46.3764 11.7283 46.005 11.323C45.6345 10.9186 45.4492 10.4084 45.4492 9.79338C45.4492 9.15017 45.6399 8.62239 46.0231 8.21267C46.4062 7.80296 46.9214 7.59766 47.5702 7.59766C48.1956 7.59766 48.698 7.79943 49.0785 8.20386C49.44 8.59684 49.6216 9.10436 49.6216 9.72466ZM48.6393 9.75462C48.6393 9.37133 48.5543 9.04268 48.3854 8.76865C48.1865 8.43735 47.9037 8.27171 47.5359 8.27171C47.1554 8.27171 46.8662 8.43735 46.6674 8.76865C46.4975 9.04268 46.4135 9.37662 46.4135 9.77136C46.4135 10.1546 46.4984 10.4833 46.6674 10.7573C46.8726 11.0886 47.1581 11.2543 47.5268 11.2543C47.8883 11.2543 48.1721 11.086 48.3763 10.7485C48.5516 10.4692 48.6393 10.1379 48.6393 9.75462Z" fill="white"/>
<path d="M56.7211 7.68262L55.3882 11.8362H54.5206L53.9684 10.0325C53.8284 9.58229 53.7145 9.13469 53.6259 8.69061H53.6088C53.5265 9.14702 53.4127 9.59375 53.2663 10.0325L52.6798 11.8362H51.8023L50.5488 7.68262H51.5221L52.0038 9.65719C52.1204 10.1242 52.2162 10.5691 52.293 10.9903H52.3101C52.3806 10.6432 52.4972 10.2008 52.6617 9.666L53.2663 7.6835H54.038L54.6173 9.62371C54.7574 10.0969 54.8712 10.5524 54.9589 10.9912H54.9851C55.0493 10.5639 55.146 10.1083 55.2743 9.62371L55.7912 7.6835H56.7211V7.68262Z" fill="white"/>
<path d="M61.6306 11.8355H60.6835V9.45651C60.6835 8.72343 60.3979 8.35689 59.825 8.35689C59.5439 8.35689 59.3171 8.45733 59.1409 8.65911C58.9665 8.86088 58.8779 9.09878 58.8779 9.37105V11.8346H57.9308V8.86881C57.9308 8.50403 57.9191 8.10841 57.8965 7.68019H58.7288L58.7731 8.32957H58.7993C58.9095 8.1278 59.074 7.96127 59.29 7.82822C59.5466 7.67315 59.834 7.59473 60.1485 7.59473C60.5461 7.59473 60.8769 7.71984 61.1399 7.97096C61.467 8.27847 61.6306 8.73753 61.6306 9.34726V11.8355Z" fill="white"/>
<path d="M64.243 11.8358H63.2969V5.77637H64.243V11.8358Z" fill="white"/>
<path d="M69.8189 9.72466C69.8189 10.3635 69.6318 10.8868 69.2577 11.2974C68.8655 11.7195 68.3449 11.9301 67.697 11.9301C67.0707 11.9301 66.5728 11.7283 66.2023 11.323C65.8317 10.9186 65.6465 10.4084 65.6465 9.79338C65.6465 9.15017 65.8372 8.62239 66.2203 8.21267C66.6035 7.80296 67.1186 7.59766 67.7666 7.59766C68.3928 7.59766 68.8944 7.79943 69.2758 8.20386C69.6372 8.59684 69.8189 9.10436 69.8189 9.72466ZM68.8357 9.75462C68.8357 9.37133 68.7507 9.04268 68.5817 8.76865C68.3838 8.43735 68.1 8.27171 67.7331 8.27171C67.3518 8.27171 67.0626 8.43735 66.8647 8.76865C66.6948 9.04268 66.6107 9.37662 66.6107 9.77136C66.6107 10.1546 66.6957 10.4833 66.8647 10.7573C67.0698 11.0886 67.3554 11.2543 67.7241 11.2543C68.0856 11.2543 68.3684 11.086 68.5727 10.7485C68.7489 10.4692 68.8357 10.1379 68.8357 9.75462Z" fill="white"/>
<path d="M74.4026 11.8358H73.5522L73.4817 11.3574H73.4555C73.1645 11.7389 72.7497 11.9301 72.2111 11.9301C71.809 11.9301 71.4836 11.8041 71.2387 11.5538C71.0164 11.3265 70.9053 11.0437 70.9053 10.708C70.9053 10.2005 71.1222 9.81365 71.5586 9.54579C71.9942 9.27793 72.6069 9.14665 73.3959 9.15282V9.07528C73.3959 8.52811 73.1013 8.25497 72.5112 8.25497C72.0909 8.25497 71.7204 8.35806 71.4005 8.56247L71.208 7.95627C71.6038 7.71749 72.0927 7.59766 72.6693 7.59766C73.7827 7.59766 74.3412 8.17038 74.3412 9.31582V10.8454C74.3412 11.2604 74.3619 11.5909 74.4026 11.8358ZM73.4194 10.4084V9.76783C72.3747 9.75021 71.8524 10.0295 71.8524 10.6049C71.8524 10.8216 71.912 10.9838 72.034 11.0921C72.156 11.2005 72.3114 11.2543 72.4967 11.2543C72.7045 11.2543 72.8988 11.1899 73.076 11.0622C73.254 10.9335 73.3633 10.7705 73.404 10.5705C73.414 10.5256 73.4194 10.471 73.4194 10.4084Z" fill="white"/>
<path d="M79.7835 11.8358H78.943L78.8987 11.1688H78.8725C78.6041 11.6763 78.1469 11.93 77.5043 11.93C76.991 11.93 76.5636 11.7336 76.2247 11.3406C75.8858 10.9476 75.7168 10.4374 75.7168 9.81098C75.7168 9.13869 75.9002 8.59416 76.269 8.17828C76.6259 7.79059 77.0633 7.59674 77.5838 7.59674C78.1559 7.59674 78.5562 7.78442 78.784 8.16065H78.802V5.77637H79.75V10.7168C79.75 11.1212 79.7609 11.4939 79.7835 11.8358ZM78.802 10.0841V9.39157C78.802 9.27174 78.793 9.17481 78.7758 9.1008C78.7225 8.87876 78.6077 8.69196 78.4333 8.54129C78.2571 8.39062 78.0447 8.31485 77.7998 8.31485C77.4465 8.31485 77.1699 8.45142 76.9666 8.72545C76.7651 8.99947 76.663 9.34927 76.663 9.77661C76.663 10.1872 76.7597 10.5203 76.954 10.7767C77.1591 11.0498 77.4356 11.1864 77.7818 11.1864C78.0926 11.1864 78.3411 11.0727 78.53 10.8445C78.7126 10.6339 78.802 10.3802 78.802 10.0841Z" fill="white"/>
<path d="M87.8843 9.72466C87.8843 10.3635 87.6972 10.8868 87.3231 11.2974C86.9309 11.7195 86.4122 11.9301 85.7624 11.9301C85.138 11.9301 84.64 11.7283 84.2677 11.323C83.8972 10.9186 83.7119 10.4084 83.7119 9.79338C83.7119 9.15017 83.9026 8.62239 84.2858 8.21267C84.6689 7.80296 85.184 7.59766 85.8338 7.59766C86.4583 7.59766 86.9616 7.79943 87.3412 8.20386C87.7027 8.59684 87.8843 9.10436 87.8843 9.72466ZM86.9029 9.75462C86.9029 9.37133 86.8179 9.04268 86.6489 8.76865C86.4492 8.43735 86.1673 8.27171 85.7986 8.27171C85.419 8.27171 85.1298 8.43735 84.9301 8.76865C84.7602 9.04268 84.6762 9.37662 84.6762 9.77136C84.6762 10.1546 84.7611 10.4833 84.9301 10.7573C85.1352 11.0886 85.4208 11.2543 85.7895 11.2543C86.151 11.2543 86.4357 11.086 86.6399 10.7485C86.8143 10.4692 86.9029 10.1379 86.9029 9.75462Z" fill="white"/>
<path d="M92.9764 11.8355H92.0302V9.45651C92.0302 8.72343 91.7446 8.35689 91.1708 8.35689C90.8897 8.35689 90.6629 8.45733 90.4876 8.65911C90.3122 8.86088 90.2246 9.09878 90.2246 9.37105V11.8346H89.2766V8.86881C89.2766 8.50403 89.2658 8.10841 89.2432 7.68019H90.0746L90.1189 8.32957H90.1451C90.2562 8.1278 90.4207 7.96127 90.6358 7.82822C90.8933 7.67315 91.1798 7.59473 91.4952 7.59473C91.8919 7.59473 92.2227 7.71984 92.4856 7.97096C92.8137 8.27847 92.9764 8.73753 92.9764 9.34726V11.8355Z" fill="white"/>
<path d="M99.3504 8.37356H98.3075V10.3913C98.3075 10.9041 98.4928 11.1605 98.8597 11.1605C99.0296 11.1605 99.1706 11.1464 99.2817 11.1173L99.3061 11.8178C99.119 11.8865 98.8732 11.9209 98.5705 11.9209C98.1964 11.9209 97.9054 11.8099 97.6948 11.5879C97.4833 11.3658 97.3785 10.9922 97.3785 10.468V8.37356H96.7559V7.68189H97.3785V6.92061L98.3066 6.64746V7.681H99.3495V8.37356H99.3504Z" fill="white"/>
<path d="M104.364 11.8358H103.416V9.47439C103.416 8.72985 103.13 8.35714 102.558 8.35714C102.119 8.35714 101.819 8.57301 101.655 9.00476C101.627 9.09551 101.61 9.20653 101.61 9.33694V11.8349H100.664V5.77637H101.61V8.2796H101.628C101.927 7.82407 102.354 7.59674 102.908 7.59674C103.3 7.59674 103.625 7.72186 103.882 7.97298C104.203 8.28577 104.364 8.751 104.364 9.36601V11.8358Z" fill="white"/>
<path d="M109.535 9.56265C109.535 9.7283 109.523 9.86752 109.5 9.98118H106.66C106.673 10.3918 106.808 10.7046 107.071 10.9213C107.311 11.1152 107.621 11.2121 108.001 11.2121C108.421 11.2121 108.804 11.1469 109.15 11.0156L109.298 11.6571C108.894 11.828 108.418 11.9135 107.868 11.9135C107.208 11.9135 106.689 11.724 106.313 11.3451C105.935 10.9663 105.748 10.4579 105.748 9.81994C105.748 9.19347 105.922 8.67185 106.274 8.25596C106.641 7.81188 107.137 7.58984 107.763 7.58984C108.376 7.58984 108.841 7.81188 109.156 8.25596C109.41 8.60841 109.535 9.04456 109.535 9.56265ZM108.632 9.32387C108.639 9.04984 108.577 8.81371 108.448 8.61458C108.284 8.35817 108.034 8.22953 107.695 8.22953C107.386 8.22953 107.133 8.35465 106.941 8.60576C106.784 8.80578 106.691 9.04456 106.66 9.32387H108.632Z" fill="white"/>
</svg>
