<svg width="123" height="37" viewBox="0 0 123 37" fill="none" xmlns="http://www.w3.org/2000/svg">
<path d="M117.973 36.1509H5.00973C2.52567 36.1509 0.491211 34.1645 0.491211 31.7393V5.26954C0.491211 2.84426 2.52567 0.857926 5.00973 0.857926H117.973C120.457 0.857926 122.491 2.84426 122.491 5.26954V31.7393C122.491 34.1645 120.457 36.1509 117.973 36.1509Z" fill="#072A38"/>
<path d="M117.973 1.56489C120.065 1.56489 121.767 3.22697 121.767 5.26954V31.7393C121.767 33.7818 120.065 35.4439 117.973 35.4439H5.00973C2.91766 35.4439 1.2153 33.7818 1.2153 31.7393V5.26954C1.2153 3.22697 2.91766 1.56489 5.00973 1.56489H117.973ZM117.973 0.857926H5.00973C2.52567 0.857926 0.491211 2.84426 0.491211 5.26954V31.7393C0.491211 34.1645 2.52567 36.1509 5.00973 36.1509H117.973C120.457 36.1509 122.491 34.1645 122.491 31.7393V5.26954C122.491 2.84426 120.457 0.857926 117.973 0.857926Z" fill="#A6A6A6"/>
<path d="M43.3433 9.89619C43.3433 10.6329 43.1173 11.223 42.6723 11.663C42.1605 12.1847 41.4941 12.4472 40.6773 12.4472C39.8968 12.4472 39.2303 12.1803 38.6835 11.6542C38.1357 11.1204 37.8623 10.4653 37.8623 9.68112C37.8623 8.89696 38.1357 8.24183 38.6835 7.71244C39.2303 7.18194 39.8968 6.91504 40.6773 6.91504C41.0659 6.91504 41.4365 6.99335 41.79 7.13893C42.1425 7.28562 42.4294 7.48414 42.6372 7.72898L42.1651 8.19441C41.8025 7.77641 41.3088 7.57017 40.6773 7.57017C40.108 7.57017 39.6144 7.76428 39.1953 8.15581C38.7807 8.54844 38.5728 9.05688 38.5728 9.68112C38.5728 10.3054 38.7807 10.8182 39.1953 11.2109C39.6144 11.598 40.108 11.7965 40.6773 11.7965C41.2817 11.7965 41.79 11.598 42.191 11.2064C42.4554 10.9473 42.6056 10.5899 42.6452 10.1333H40.6773V9.49584H43.3026C43.3342 9.6337 43.3433 9.76715 43.3433 9.89619Z" fill="white" stroke="white" stroke-width="0.16" stroke-miterlimit="10"/>
<path d="M47.5069 7.68574H45.0409V9.36216H47.264V9.99964H45.0409V11.6761H47.5069V12.3257H44.3428V7.03613H47.5069V7.68574Z" fill="white" stroke="white" stroke-width="0.16" stroke-miterlimit="10"/>
<path d="M50.447 12.3262H49.7489V7.68623H48.2363V7.03662H51.9607V7.68623H50.447V12.3262Z" fill="white" stroke="white" stroke-width="0.16" stroke-miterlimit="10"/>
<path d="M54.6553 12.3262V7.03662H55.3523V12.3262H54.6553Z" fill="white" stroke="white" stroke-width="0.16" stroke-miterlimit="10"/>
<path d="M58.4421 12.3262H57.7497V7.68623H56.2314V7.03662H59.9603V7.68623H58.4421V12.3262Z" fill="white" stroke="white" stroke-width="0.16" stroke-miterlimit="10"/>
<path d="M67.0113 11.6454C66.477 12.1803 65.815 12.4472 65.0254 12.4472C64.2313 12.4472 63.5693 12.1803 63.035 11.6454C62.5018 11.1116 62.2363 10.4565 62.2363 9.68112C62.2363 8.90578 62.5018 8.25066 63.035 7.71685C63.5693 7.18194 64.2313 6.91504 65.0254 6.91504C65.8105 6.91504 66.4724 7.18194 67.0068 7.72126C67.5445 8.25948 67.8099 8.91019 67.8099 9.68112C67.8099 10.4565 67.5445 11.1116 67.0113 11.6454ZM63.5512 11.202C63.9534 11.598 64.4425 11.7965 65.0254 11.7965C65.6038 11.7965 66.0974 11.598 66.495 11.202C66.8961 10.8061 67.0994 10.2976 67.0994 9.68112C67.0994 9.0646 66.8961 8.55616 66.495 8.16022C66.0974 7.76428 65.6038 7.56575 65.0254 7.56575C64.4425 7.56575 63.9534 7.76428 63.5512 8.16022C63.1502 8.55616 62.9469 9.0646 62.9469 9.68112C62.9469 10.2976 63.1502 10.8061 63.5512 11.202Z" fill="white" stroke="white" stroke-width="0.16" stroke-miterlimit="10"/>
<path d="M68.79 12.3262V7.03662H69.6373L72.2716 11.1505H72.3021L72.2716 10.1336V7.03662H72.9685V12.3262H72.2411L69.4825 8.00938H69.452L69.4825 9.03067V12.3262H68.79Z" fill="white" stroke="white" stroke-width="0.16" stroke-miterlimit="10"/>
<path d="M62.0649 20.0507C59.9424 20.0507 58.2084 21.6278 58.2084 23.8038C58.2084 25.9622 59.9424 27.5559 62.0649 27.5559C64.192 27.5559 65.926 25.9622 65.926 23.8038C65.926 21.6278 64.192 20.0507 62.0649 20.0507ZM62.0649 26.078C60.9003 26.078 59.8983 25.1395 59.8983 23.8038C59.8983 22.4506 60.9003 21.5285 62.0649 21.5285C63.2296 21.5285 64.2361 22.4506 64.2361 23.8038C64.2361 25.1395 63.2296 26.078 62.0649 26.078ZM53.6503 20.0507C51.5232 20.0507 49.7938 21.6278 49.7938 23.8038C49.7938 25.9622 51.5232 27.5559 53.6503 27.5559C55.7763 27.5559 57.5069 25.9622 57.5069 23.8038C57.5069 21.6278 55.7763 20.0507 53.6503 20.0507ZM53.6503 26.078C52.4846 26.078 51.4792 25.1395 51.4792 23.8038C51.4792 22.4506 52.4846 21.5285 53.6503 21.5285C54.815 21.5285 55.817 22.4506 55.817 23.8038C55.817 25.1395 54.815 26.078 53.6503 26.078ZM43.6373 21.201V22.7958H47.5379C47.4238 23.6869 47.1188 24.3421 46.6512 24.7987C46.0818 25.3501 45.1951 25.9622 43.6373 25.9622C41.2368 25.9622 39.3571 24.0707 39.3571 21.7271C39.3571 19.3834 41.2368 17.4919 43.6373 17.4919C44.9352 17.4919 45.8796 17.9871 46.5766 18.629L47.7277 17.5051C46.7528 16.5964 45.456 15.8982 43.6373 15.8982C40.3456 15.8982 37.5791 18.5132 37.5791 21.7271C37.5791 24.9409 40.3456 27.5559 43.6373 27.5559C45.4165 27.5559 46.7528 26.9868 47.8034 25.9192C48.8799 24.8681 49.2154 23.3902 49.2154 22.1969C49.2154 21.8263 49.1838 21.4855 49.1273 21.201H43.6373ZM84.5818 22.4373C84.2644 21.598 83.285 20.0507 81.2901 20.0507C79.3132 20.0507 77.6674 21.5716 77.6674 23.8038C77.6674 25.906 79.2963 27.5559 81.4799 27.5559C83.2455 27.5559 84.2644 26.5049 84.6835 25.8927L83.3731 25.0402C82.936 25.6644 82.3407 26.078 81.4799 26.078C80.6247 26.078 80.0114 25.6953 79.6182 24.9409L84.7592 22.8642L84.5818 22.4373ZM79.3404 23.6869C79.2963 22.2399 80.4915 21.4988 81.3477 21.4988C82.0187 21.4988 82.588 21.8263 82.7778 22.2951L79.3404 23.6869ZM75.1619 27.3276H76.8518V16.2986H75.1619V27.3276ZM72.3943 20.8867H72.3378C71.9582 20.4477 71.2341 20.0507 70.3169 20.0507C68.392 20.0507 66.632 21.7006 66.632 23.816C66.632 25.9192 68.392 27.5559 70.3169 27.5559C71.2341 27.5559 71.9582 27.1556 72.3378 26.7034H72.3943V27.2416C72.3943 28.6765 71.6092 29.4474 70.3429 29.4474C69.3104 29.4474 68.6699 28.7195 68.4056 28.1074L66.9359 28.7062C67.3595 29.7011 68.4812 30.9253 70.3429 30.9253C72.3242 30.9253 73.9961 29.7871 73.9961 27.0177V20.279H72.3943V20.8867ZM70.4615 26.078C69.2968 26.078 68.322 25.1262 68.322 23.816C68.322 22.4936 69.2968 21.5285 70.4615 21.5285C71.6092 21.5285 72.514 22.4936 72.514 23.816C72.514 25.1262 71.6092 26.078 70.4615 26.078ZM92.4938 16.2986H88.4519V27.3276H90.1374V23.1487H92.4938C94.3656 23.1487 96.2012 21.8263 96.2012 19.7231C96.2012 17.621 94.361 16.2986 92.4938 16.2986ZM92.5378 21.6146H90.1374V17.8327H92.5378C93.7962 17.8327 94.5147 18.8529 94.5147 19.7231C94.5147 20.5767 93.7962 21.6146 92.5378 21.6146ZM102.956 20.0297C101.739 20.0297 100.472 20.5547 99.9516 21.7182L101.447 22.3304C101.769 21.7182 102.361 21.5197 102.987 21.5197C103.861 21.5197 104.748 22.0326 104.762 22.9381V23.0539C104.457 22.8818 103.804 22.627 103 22.627C101.39 22.627 99.7482 23.4928 99.7482 25.1086C99.7482 26.5865 101.068 27.5383 102.551 27.5383C103.685 27.5383 104.311 27.0387 104.704 26.4574H104.762V27.31H106.389V23.0792C106.389 21.1238 104.894 20.0297 102.956 20.0297ZM102.753 26.0736C102.202 26.0736 101.434 25.8067 101.434 25.1395C101.434 24.2858 102.392 23.9582 103.221 23.9582C103.963 23.9582 104.311 24.1182 104.762 24.3288C104.629 25.3501 103.729 26.0736 102.753 26.0736ZM112.32 20.2712L110.383 25.0523H110.325L108.322 20.2712H106.505L109.514 26.9526L107.797 30.6705H109.558L114.195 20.2712H112.32ZM97.1275 27.3276H98.8174V16.2986H97.1275V27.3276Z" fill="white"/>
<path d="M9.92104 7.50979C9.65558 7.7811 9.50195 8.20352 9.50195 8.75056V28.2632C9.50195 28.8102 9.65558 29.2326 9.92104 29.5039L9.98656 29.5635L21.1857 18.6337V18.3756L9.98656 7.44582L9.92104 7.50979Z" fill="url(#paint0_linear_2367_4435)"/>
<path d="M24.9145 22.2783L21.1855 18.6332V18.3751L24.919 14.73L25.0026 14.7775L29.4239 17.2336C30.6857 17.9307 30.6857 19.0777 29.4239 19.7791L25.0026 22.2309L24.9145 22.2783Z" fill="url(#paint1_linear_2367_4435)"/>
<path d="M25.0026 22.2313L21.1856 18.5046L9.9209 29.5038C10.34 29.934 11.0234 29.9858 11.8006 29.5557L25.0026 22.2313Z" fill="url(#paint2_linear_2367_4435)"/>
<path d="M25.0026 14.7777L11.8006 7.45329C11.0234 7.02757 10.34 7.07941 9.9209 7.50954L21.1856 18.5044L25.0026 14.7777Z" fill="url(#paint3_linear_2367_4435)"/>
<defs>
<linearGradient id="paint0_linear_2367_4435" x1="20.1914" y1="28.4664" x2="5.38809" y2="13.3044" gradientUnits="userSpaceOnUse">
<stop stop-color="#00A0FF"/>
<stop offset="0.0066" stop-color="#00A1FF"/>
<stop offset="0.2601" stop-color="#00BEFF"/>
<stop offset="0.5122" stop-color="#00D2FF"/>
<stop offset="0.7604" stop-color="#00DFFF"/>
<stop offset="1" stop-color="#00E3FF"/>
</linearGradient>
<linearGradient id="paint1_linear_2367_4435" x1="31.067" y1="18.5029" x2="9.20018" y2="18.5029" gradientUnits="userSpaceOnUse">
<stop stop-color="#FFE000"/>
<stop offset="0.4087" stop-color="#FFBD00"/>
<stop offset="0.7754" stop-color="#FFA500"/>
<stop offset="1" stop-color="#FF9C00"/>
</linearGradient>
<linearGradient id="paint2_linear_2367_4435" x1="22.927" y1="16.4787" x2="2.85257" y2="-4.08221" gradientUnits="userSpaceOnUse">
<stop stop-color="#FF3A44"/>
<stop offset="1" stop-color="#C31162"/>
</linearGradient>
<linearGradient id="paint3_linear_2367_4435" x1="7.08535" y1="35.9954" x2="16.0495" y2="26.8141" gradientUnits="userSpaceOnUse">
<stop stop-color="#32A071"/>
<stop offset="0.0685" stop-color="#2DA771"/>
<stop offset="0.4762" stop-color="#15CF74"/>
<stop offset="0.8009" stop-color="#06E775"/>
<stop offset="1" stop-color="#00F076"/>
</linearGradient>
</defs>
</svg>
