<svg width="130" height="48" viewBox="0 0 130 48" fill="none" xmlns="http://www.w3.org/2000/svg">
<g clip-path="url(#clip0_2367_4353)">
<path d="M20.9926 39.1094H22.2937L26.5736 44.9266L26.574 39.1094H27.9548V47.5228H26.7794L22.3738 41.537L22.3734 47.5228H20.9922L20.9926 39.1094Z" fill="#16A2A0"/>
<path d="M29.9639 45.2151V41.1768H31.3451L31.3446 44.7826C31.3446 45.7681 31.8123 46.321 32.6346 46.321C33.4336 46.321 33.9926 45.744 33.9926 44.7585V41.1768H35.385V47.5228H33.9926V46.5373C33.6042 47.1384 33.0452 47.6549 32.109 47.6549C30.7509 47.6549 29.9639 46.6934 29.9639 45.2151Z" fill="#16A2A0"/>
<path d="M37.2905 41.1769H38.6717L38.6713 42.1383C39.0597 41.5733 39.5848 41.0444 40.5091 41.0444C41.3767 41.0444 41.9932 41.4895 42.3121 42.1624C42.7918 41.4895 43.431 41.0444 44.3441 41.0444C45.6567 41.0444 46.4557 41.922 46.4557 43.4725V47.523H45.0745V43.9171C45.0745 42.9075 44.6296 42.3666 43.8532 42.3666C43.1 42.3666 42.5633 42.9196 42.5633 43.9412V47.523H41.1821V43.9051C41.1821 42.9196 40.726 42.3666 39.9612 42.3666C39.1964 42.3666 38.6713 42.9677 38.6713 43.9412V47.523H37.2905V41.1769H37.2905Z" fill="#16A2A0"/>
<path d="M49.6966 46.5372V47.5227H48.3154V38.7485H49.6966V42.2344C50.1416 41.5731 50.7696 41.0442 51.7509 41.0442C53.1664 41.0442 54.5476 42.2224 54.5476 44.3374V44.3615C54.5476 46.465 53.1775 47.6547 51.7509 47.6547C50.7465 47.6547 50.1185 47.1263 49.6966 46.5372V46.5372ZM53.1432 44.3615V44.3374C53.1432 43.1116 52.3562 42.3062 51.4199 42.3062C50.4837 42.3062 49.6624 43.1236 49.6624 44.3374V44.3615C49.6624 45.5758 50.4837 46.3927 51.4199 46.3927C52.3673 46.3927 53.1432 45.6115 53.1432 44.3615Z" fill="#16A2A0"/>
<path d="M55.8252 44.3738V44.3497C55.8252 42.5347 57.0469 41.0444 58.7702 41.0444C60.6877 41.0444 61.6578 42.6311 61.6578 44.4581C61.6578 44.5901 61.6463 44.7225 61.6347 44.8665H57.2064C57.3547 45.9002 58.0509 46.4772 58.9413 46.4772C59.6147 46.4772 60.094 46.2128 60.5733 45.72L61.3835 46.4772C60.8133 47.1983 60.0254 47.667 58.9186 47.667C57.1721 47.667 55.8252 46.3332 55.8252 44.3738H55.8252ZM60.2878 43.9051C60.1969 42.9677 59.6718 42.2346 58.7587 42.2346C57.9137 42.2346 57.3204 42.9196 57.1953 43.9051H60.2878Z" fill="#16A2A0"/>
<path d="M63.2328 41.1766H64.6136L64.6132 42.6067C64.9904 41.6573 65.6866 41.0081 66.748 41.0562V42.5947H66.6679C65.4581 42.5947 64.6132 43.4241 64.6132 45.1066V47.5227H63.2324L63.2328 41.1766Z" fill="#16A2A0"/>
<path d="M67.6377 46.6934L68.2541 45.7079C68.916 46.2247 69.6122 46.4891 70.2286 46.4891C70.8219 46.4891 71.1649 46.2247 71.1649 45.8042V45.7801C71.1649 45.2873 70.5253 45.1188 69.818 44.8905C68.9272 44.626 67.9343 44.2416 67.9343 43.0278V43.0037C67.9348 41.8015 68.8822 41.0684 70.0803 41.0684C70.8339 41.0684 71.6553 41.3448 72.2949 41.7894L71.7466 42.8231C71.1649 42.4507 70.5484 42.2224 70.046 42.2224C69.5093 42.2224 69.2015 42.4869 69.2015 42.8472V42.8713C69.2015 43.3399 69.8523 43.5326 70.5596 43.7729C71.4384 44.0615 72.4312 44.482 72.4312 45.6236V45.6477C72.4312 46.9819 71.45 47.6432 70.1944 47.6432C69.3387 47.6432 68.3913 47.3186 67.6377 46.6934V46.6934Z" fill="#16A2A0"/>
<path d="M77.7954 39.1094H81.3564C82.3608 39.1094 83.1483 39.422 83.6619 39.9508C84.0846 40.4075 84.3242 41.0323 84.3242 41.7654V41.7894C84.3238 43.1718 83.5363 44.0013 82.429 44.3375L84.5861 47.5228H82.9203L80.9569 44.5899H79.1993V47.5228H77.7949L77.7954 39.1094V39.1094ZM81.2535 43.2802C82.2579 43.2802 82.8971 42.7272 82.8971 41.8737V41.8496C82.8971 40.9484 82.2811 40.4557 81.2424 40.4557H79.1993V43.2802H81.2535Z" fill="#16A2A0"/>
<path d="M86.002 45.2151V41.1768H87.3832L87.3827 44.7826C87.3827 45.7681 87.8504 46.321 88.6726 46.321C89.4717 46.321 90.0307 45.744 90.0307 44.7585V41.1768H91.4231V47.5228H90.0307V46.5373C89.6423 47.1384 89.0833 47.6549 88.1471 47.6549C86.789 47.6549 86.002 46.6934 86.002 45.2151Z" fill="#16A2A0"/>
<path d="M93.4087 38.7485H94.7899V47.5227H93.4087V38.7485Z" fill="#16A2A0"/>
<path d="M96.4443 44.3738V44.3497C96.4443 42.5347 97.6652 41.0444 99.3894 41.0444C101.306 41.0444 102.277 42.6311 102.277 44.4581C102.277 44.5901 102.265 44.7225 102.254 44.8665H97.8256C97.9739 45.9002 98.6701 46.4772 99.56 46.4772C100.234 46.4772 100.713 46.2128 101.192 45.72L102.003 46.4772C101.432 47.1983 100.645 47.667 99.5377 47.667C97.7913 47.667 96.4443 46.3332 96.4443 44.3738ZM100.907 43.9051C100.816 42.9677 100.29 42.2346 99.3774 42.2346C98.5329 42.2346 97.9396 42.9196 97.8135 43.9051H100.907Z" fill="#16A2A0"/>
<path d="M120.651 14.0183C120.173 13.4819 119.863 12.8846 119.669 12.2583C119.476 11.602 119.401 10.0215 119.401 7.53098C119.401 5.32315 119.149 3.74342 118.686 2.77213C118.257 1.7886 117.499 1.08777 116.473 0.655187C115.446 0.222965 114.007 0 112.1 0H111.165V4.14982C112.651 4.14982 113.574 4.26892 113.931 4.47779C114.274 4.70113 114.525 5.02598 114.599 5.32315C114.703 5.62143 114.828 6.46377 114.867 8.79796C114.901 10.8717 115.03 12.2583 115.164 12.9896C115.298 13.7494 115.58 14.4361 115.984 15.0928C116.384 15.719 117.097 16.3597 118.094 17.045C117.143 17.5829 116.443 18.2385 116.012 18.9694C115.58 19.7318 115.283 20.5213 115.121 21.3861C114.987 22.2368 114.948 24.1757 114.792 27.2023C114.737 28.2757 114.57 28.9757 114.227 29.3059C113.841 29.6465 112.829 29.9238 111.165 29.9238V34.0777H112.133C113.768 34.0777 115.03 33.9297 115.923 33.6615C116.828 33.3472 117.558 32.885 118.123 32.2424C118.686 31.5861 119.043 30.7654 119.178 29.8123C119.312 28.8414 119.401 27.3522 119.401 25.3688C119.401 22.7584 119.73 21.0559 120.368 20.3124C121.022 19.5378 121.975 19.1642 123.27 19.1642V14.8976C121.975 14.8394 121.113 14.5693 120.651 14.0183" fill="#16A2A0"/>
<path d="M2.61913 20.0594C3.09628 20.5959 3.40662 21.1932 3.60081 21.8194C3.79351 22.4757 3.86823 24.0562 3.86823 26.5467C3.86823 28.7546 4.12086 30.3343 4.58321 31.3056C5.01301 32.2891 5.77053 32.99 6.79622 33.4225C7.82337 33.8548 9.26259 34.0777 11.1701 34.0777H12.1051V29.9279C10.6186 29.9279 9.69534 29.8088 9.33841 29.5999C8.9959 29.3766 8.74474 29.0518 8.67077 28.7546C8.56683 28.4563 8.44123 27.614 8.4026 25.2798C8.36829 23.206 8.23948 21.8194 8.10521 21.0882C7.97132 20.3284 7.68984 19.6416 7.28557 18.985C6.88572 18.3587 6.17222 17.718 5.17538 17.0327C6.12709 16.4948 6.82691 15.8392 7.25782 15.1084C7.68984 14.3459 7.98649 13.5564 8.14886 12.6916C8.28276 11.8409 8.32129 9.90198 8.47732 6.87543C8.53265 5.80206 8.69962 5.10204 9.04286 4.77184C9.42902 4.43126 10.4407 4.15392 12.1051 4.15392V0H11.1371C9.50189 0 8.23948 0.148037 7.34659 0.416268C6.44186 0.730513 5.71134 1.19277 5.14653 1.83536C4.58321 2.49166 4.22664 3.31232 4.09163 4.26542C3.95811 5.23634 3.86822 6.72555 3.86822 8.70892C3.86822 11.3193 3.54014 13.0218 2.90172 13.7653C2.24814 14.54 1.29423 14.9136 0 14.9136V19.1801C1.29423 19.2384 2.15715 19.5084 2.61913 20.0594" fill="#16A2A0"/>
<path d="M65.4271 27.1582C59.6489 27.1582 54.9478 22.4428 54.9478 16.647C54.9478 10.851 59.6489 6.13574 65.4271 6.13574C71.2054 6.13574 75.9067 10.851 75.9067 16.647C75.9067 17.0552 75.9025 17.1796 75.8585 17.569L75.846 17.6799L61.1446 18.1046V17.8037L62.4536 17.3582C65.7675 16.232 70.7502 14.539 71.1723 14.1444C70.3222 11.885 68.0172 10.3689 65.4271 10.3689C61.9758 10.3689 59.1682 13.1853 59.1682 16.647C59.1682 20.1085 61.9758 22.9248 65.4271 22.9248C67.6436 22.9248 69.6498 21.7864 70.7937 19.8793L70.831 19.8171H75.4199L75.3635 19.9863C73.9308 24.2759 69.9377 27.1582 65.4271 27.1582Z" fill="#072A38"/>
<path d="M23.8277 27.1582C18.0493 27.1582 13.3481 22.4428 13.3481 16.647C13.3481 10.851 18.0493 6.13574 23.8277 6.13574C29.6061 6.13574 34.3071 10.851 34.3071 16.647C34.3071 17.0561 34.3029 17.1804 34.2591 17.569L34.2465 17.6799L19.5453 18.1046L19.545 17.8037L20.8527 17.3589C24.1672 16.2324 29.1506 14.539 29.5728 14.1444C28.7226 11.885 26.4176 10.3689 23.8277 10.3689C20.3764 10.3689 17.5686 13.1853 17.5686 16.647C17.5686 20.1085 20.3763 22.9248 23.8277 22.9248C26.044 22.9248 28.0502 21.7864 29.1943 19.8793L29.2317 19.8171H33.8204L33.7639 19.9863C32.3314 24.2759 28.3383 27.1582 23.8277 27.1582" fill="#072A38"/>
<path d="M44.9838 18.1612L39.5643 6.8208H33.3506L44.7034 27.1584H44.9369L55.7758 6.8208H49.936L44.9838 18.1612Z" fill="#072A38"/>
<path d="M104.444 27.269C102.516 27.269 101.331 26.6722 100.077 25.4951C98.8082 24.3237 98.165 22.7866 98.165 20.9266L98.1813 11.0069H94.666V6.86185H98.2002L102.563 0.0922852H102.865L102.881 6.86185H108.718V11.0069H102.881L102.865 20.298C102.865 22.0796 103.431 23.1012 104.917 23.1012C105.947 23.1012 106.881 22.78 107.48 22.1193L107.506 22.0918L109.898 24.4912L109.881 24.5157C108.577 26.4455 106.851 27.269 104.444 27.269Z" fill="#072A38"/>
<path d="M85.2034 27.1164C82.4011 27.1252 79.4277 26.1058 77.6104 24.0293L79.7406 21.1647C84.2276 25.9868 91.0972 22.5224 87.2679 19.3927C86.4352 18.8237 84.5067 18.2506 83.7022 18.0275C80.8436 17.1287 78.6404 15.2846 78.4819 12.4038C78.4895 10.1376 79.6614 8.15086 81.7477 7.06209C85.013 5.45814 89.8388 6.02693 92.7 8.29091L90.7551 11.3306C89.2027 9.91427 86.3179 8.96183 84.516 10.2001C83.2116 11.1053 82.905 12.7154 84.373 13.5665C86.1982 14.7755 90.3708 15.2893 91.8943 16.9217C92.7519 17.7982 93.1866 18.96 93.1866 20.3748C93.1351 24.7227 89.719 27.2012 85.2034 27.1164L85.2034 27.1164Z" fill="#072A38"/>
<path d="M124.295 34.004C124.259 34.004 124.241 33.9859 124.241 33.9497V30.9095C124.241 30.8877 124.23 30.8766 124.208 30.8766H123.241C123.205 30.8766 123.187 30.8585 123.187 30.8218V30.3487C123.187 30.3121 123.205 30.2939 123.241 30.2939H125.881C125.917 30.2939 125.935 30.3121 125.935 30.3487V30.8218C125.935 30.8585 125.917 30.8766 125.881 30.8766H124.914C124.892 30.8766 124.882 30.8877 124.882 30.9095V33.9497C124.882 33.9859 124.864 34.004 124.828 34.004H124.295Z" fill="#072A38"/>
<path d="M126.708 30.3541C126.708 30.3178 126.727 30.2993 126.763 30.2993H127.246C127.293 30.2993 127.324 30.3178 127.338 30.3541L128.354 32.6366H128.376L129.375 30.3541C129.39 30.3178 129.42 30.2993 129.468 30.2993H129.946C129.982 30.2993 130 30.3178 130 30.3541V33.9499C130 33.9861 129.982 34.0042 129.946 34.0042H129.473C129.437 34.0042 129.419 33.9861 129.419 33.9499V31.6833H129.397L128.615 33.4268C128.593 33.4741 128.559 33.4974 128.512 33.4974H128.197C128.149 33.4974 128.115 33.4741 128.093 33.4268L127.311 31.6833H127.289V33.9499C127.289 33.9861 127.271 34.0042 127.235 34.0042H126.763C126.727 34.0042 126.708 33.9861 126.708 33.9499V30.3541Z" fill="#072A38"/>
</g>
<defs>
<clipPath id="clip0_2367_4353">
<rect width="130" height="47.6667" fill="white"/>
</clipPath>
</defs>
</svg>
