<svg width="37" height="28" viewBox="0 0 37 28" fill="none" xmlns="http://www.w3.org/2000/svg">
<path d="M10.8454 0.0617391C10.0113 0.157668 8.83193 0.407084 8.17994 0.646907C4.17209 2.07625 1.41069 5.55848 0.91211 9.79855C0.327232 14.8444 3.44338 19.6984 8.31417 21.3388C9.56063 21.7609 10.6824 21.9048 12.1878 21.8473C14.2588 21.7705 15.8696 21.2909 17.4805 20.2836C17.9407 19.9862 18.3626 19.7176 18.4105 19.6697C18.4584 19.6217 18.1325 19.2188 17.6339 18.7296C15.7546 16.8685 14.6999 14.6526 14.4218 11.9665C14.0767 8.75292 15.3806 5.32825 17.7969 3.04514C18.3434 2.52712 18.5064 2.4216 18.6406 2.48875C19.005 2.6806 20.4144 4.26344 20.9322 5.05006C22.7252 7.81282 23.1662 11.3142 22.1211 14.4127C21.5458 16.1011 20.7404 17.4057 19.446 18.6912L18.5543 19.5833L18.7749 19.7656C19.2063 20.1205 20.4528 20.8208 21.1719 21.099C22.6389 21.6938 23.4155 21.8281 25.3236 21.8185C26.8673 21.8185 27.1453 21.7897 27.9699 21.5691C29.8779 21.051 31.4504 20.1781 32.8215 18.8735C35.1323 16.6575 36.3116 13.7316 36.1774 10.5084C36.0144 6.70963 34.068 3.46723 30.7792 1.52946C27.1837 -0.590579 22.6005 -0.4275 19.12 1.93236C18.8228 2.1434 18.5543 2.30648 18.5256 2.30648C18.4968 2.30648 18.1804 2.10503 17.8256 1.86521C16.6846 1.10737 15.3135 0.531792 13.9232 0.253597C13.1945 0.100111 11.4783 -0.00541137 10.8454 0.0617391Z" fill="#b4bfc3"/>
<path d="M22.562 23.6704C22.5236 23.6992 22.4949 23.891 22.4949 24.0925C22.4949 24.4187 22.4661 24.457 22.236 24.4858C22.025 24.505 21.9579 24.5721 21.9387 24.7736C21.91 25.0134 21.9387 25.0422 22.188 25.0422H22.4661L22.5236 26.0207C22.5716 26.932 22.5908 27.0183 22.8305 27.2198C23.0127 27.3829 23.2044 27.4404 23.54 27.4404C24.0961 27.4404 24.3359 27.2869 24.2592 26.98C24.2016 26.7785 24.1537 26.7689 23.7989 26.8169C23.2332 26.9032 23.1469 26.7689 23.1852 25.8384L23.214 25.0902L23.7222 25.0614C24.2112 25.0326 24.2304 25.023 24.2016 24.7736C24.1729 24.5338 24.1345 24.5146 23.6743 24.4858L23.1661 24.457V24.0253C23.1661 23.6224 23.1565 23.6033 22.8976 23.6033C22.7442 23.6033 22.5908 23.632 22.562 23.6704Z" fill="#b4bfc3"/>
<path d="M7.51758 24.6204C7.36417 24.6972 7.24911 24.7164 7.24911 24.6588C7.24911 24.6108 7.12447 24.5629 6.96147 24.5629H6.67383V25.9537V27.3445H6.95188H7.22993L7.26829 26.3949C7.30664 25.3015 7.44087 25.0425 7.9778 25.0425C8.47638 25.0425 8.59144 25.3015 8.59144 26.4045V27.3445H8.92702H9.2626V26.4045C9.2626 25.5413 9.28178 25.4453 9.48313 25.2535C9.742 25.0137 10.1063 24.9849 10.3748 25.1768C10.5282 25.2919 10.557 25.4549 10.5858 26.3757L10.6241 27.4404H10.8926C11.209 27.4404 11.2761 27.2678 11.2665 26.4333C11.2569 24.9082 10.9884 24.467 10.0872 24.467C9.71324 24.467 9.5023 24.5245 9.32013 24.6684L9.07084 24.8602L8.82155 24.6684C8.51473 24.4286 7.9011 24.4094 7.51758 24.6204Z" fill="#b4bfc3"/>
<path d="M12.4165 24.6972C11.5824 25.2631 11.6016 26.7306 12.4549 27.2486C12.8384 27.4884 13.5863 27.498 13.9123 27.287C14.1328 27.1431 14.152 27.1431 14.152 27.287C14.152 27.3925 14.2383 27.4404 14.4396 27.4404H14.7272V25.9537V24.467H14.4396C14.2478 24.467 14.152 24.5149 14.152 24.6108C14.152 24.7931 14.0657 24.7931 13.826 24.6108C13.5287 24.3806 12.8097 24.4286 12.4165 24.6972ZM13.9027 25.2919C14.2478 25.6468 14.2574 26.2894 13.9123 26.6251C13.6055 26.9417 13.1069 26.9417 12.7425 26.6347C12.522 26.4429 12.4741 26.3278 12.4741 25.9537C12.4741 25.5796 12.522 25.4645 12.7425 25.2727C13.1069 24.9562 13.5671 24.9657 13.9027 25.2919Z" fill="#b4bfc3"/>
<path d="M16.1289 24.6492C15.6879 24.937 15.4961 25.3206 15.4961 25.8866C15.4961 26.9129 16.0043 27.4404 16.9727 27.4404C17.8261 27.4404 18.3247 27.0855 17.9411 26.769C17.8261 26.6731 17.7398 26.6731 17.548 26.7594C17.1357 26.9417 16.6083 26.8937 16.3782 26.6443C15.9947 26.2415 16.0906 26.1935 17.222 26.1935H18.2767V25.877C18.2671 25.407 17.9507 24.7931 17.6151 24.6204C17.2124 24.4094 16.4741 24.4286 16.1289 24.6492ZM17.4138 25.2343C17.7877 25.6084 17.6727 25.7139 16.8864 25.7139C16.3111 25.7139 16.1673 25.6851 16.1673 25.57C16.1673 25.3111 16.5316 25.0425 16.8864 25.0425C17.0973 25.0425 17.2987 25.1192 17.4138 25.2343Z" fill="#b4bfc3"/>
<path d="M19.4653 24.5534C18.9476 24.774 18.775 25.5221 19.1681 25.8866C19.2831 25.9921 19.6379 26.1456 19.9447 26.2128C20.8364 26.4142 20.9515 26.8746 20.1077 26.8842C19.8968 26.8842 19.5804 26.8362 19.4174 26.7595C19.1489 26.654 19.101 26.6636 18.9859 26.817C18.7846 27.0856 18.8133 27.1527 19.2064 27.3158C19.4461 27.4117 19.7721 27.4501 20.2132 27.4213C20.7693 27.3925 20.9035 27.3446 21.124 27.124C21.45 26.8074 21.4788 26.2799 21.1912 26.0017C21.0857 25.8866 20.7405 25.7523 20.4049 25.6852C19.753 25.5509 19.5612 25.4262 19.6571 25.1768C19.7146 25.0426 19.8105 25.0234 20.4145 25.0809C21.0282 25.1385 21.1145 25.1193 21.2199 24.9562C21.3158 24.8028 21.3062 24.7452 21.1816 24.6397C20.9994 24.4958 19.7625 24.4287 19.4653 24.5534Z" fill="#b4bfc3"/>
<path d="M25.9698 24.6204C25.8548 24.6972 25.7589 24.7164 25.7589 24.6684C25.7589 24.6109 25.6342 24.5629 25.4712 24.5629H25.1836V26.0017V27.4404H25.4617H25.7397L25.7781 26.3757C25.8068 25.196 25.8931 25.0425 26.4876 25.0425C26.7848 25.0425 26.9095 24.9178 26.9095 24.6013C26.9095 24.419 26.2479 24.419 25.9698 24.6204Z" fill="#b4bfc3"/>
<path d="M27.9507 24.6977C27.5288 24.9855 27.2891 25.465 27.2891 26.0214C27.2891 27.393 29.0725 28.0069 30.0218 26.9518C30.319 26.6161 30.3574 26.5201 30.3574 26.0214C30.3574 25.0334 29.7917 24.4675 28.8232 24.4675C28.4205 24.4675 28.2096 24.5251 27.9507 24.6977ZM29.3026 25.1869C29.667 25.3787 29.8492 25.8967 29.6862 26.2995C29.5232 26.6832 29.2355 26.8655 28.7945 26.8655C27.9986 26.8655 27.6534 25.9159 28.2383 25.3212C28.5547 25.0046 28.8807 24.9663 29.3026 25.1869Z" fill="#b4bfc3"/>
</svg>
