<svg width="36" height="28" viewBox="0 0 36 28" fill="none" xmlns="http://www.w3.org/2000/svg">
<path d="M9.48399 0.263093C7.51842 0.665995 5.75419 1.55814 4.2105 2.92992C2.84898 4.13863 1.52581 6.33541 1.03681 8.22521C0.69164 9.52025 0.605346 11.4772 0.835462 12.7723C1.94769 19.1515 8.15124 23.1326 14.4027 21.4922C15.6492 21.1661 16.9244 20.5521 18.1517 19.6791C18.2763 19.5928 18.4777 19.6791 19.1297 20.1108C22.2842 22.1733 26.3112 22.4323 29.7246 20.7919C30.8656 20.2451 31.6135 19.7367 32.5148 18.8829C33.953 17.5303 35.0461 15.7077 35.5734 13.7891C35.8227 12.897 35.8419 12.6955 35.8419 11.0072C35.8419 9.39555 35.8131 9.08857 35.6118 8.32114C34.7296 4.96362 32.3038 2.1529 29.226 0.915411C27.7878 0.339836 27.0783 0.195942 25.3908 0.147978C23.617 0.0904202 22.428 0.282279 21.0665 0.819482C20.2515 1.15523 19.053 1.80755 18.5928 2.17208L18.3243 2.40231L19.053 3.10259C20.0789 4.07148 20.6542 4.86769 21.3158 6.2107C21.8911 7.37144 22.1883 8.34033 22.3705 9.56822C22.7157 12.0432 22.0828 14.8059 20.6734 16.9356C20.2419 17.5975 18.4969 19.4969 18.3339 19.4969C18.1709 19.4969 16.8765 18.1922 16.3491 17.492C13.9904 14.3647 13.511 10.2685 15.0739 6.64238C15.5821 5.45286 16.4162 4.24415 17.4038 3.25608C17.8641 2.78603 18.2476 2.39272 18.2476 2.37353C18.2476 2.26801 16.9628 1.48139 16.1957 1.11686C14.6808 0.397393 13.7699 0.205535 11.8235 0.157571C10.625 0.138385 9.95381 0.167164 9.48399 0.263093Z" fill="#b4bfc3"/>
<path d="M33.5895 24.0154C33.5895 24.6293 33.5703 24.6869 33.4265 24.6293C32.5732 24.2648 31.8924 24.3799 31.5089 24.9555C31.0391 25.6461 31.1062 26.4328 31.6719 26.9988C32.0075 27.3345 32.0746 27.3633 32.5732 27.3633C32.9088 27.3633 33.206 27.3057 33.3498 27.2098C33.5703 27.0659 33.5895 27.0659 33.5895 27.2098C33.5895 27.3153 33.6758 27.3633 33.8772 27.3633H34.1648V25.3488V23.3343H33.8772H33.5895V24.0154ZM33.3115 25.2432C33.6758 25.6174 33.6854 26.0778 33.3402 26.4903C32.8225 27.1139 31.8636 26.7014 31.8636 25.8572C31.8636 25.4159 32.2951 24.9651 32.7266 24.9651C32.9375 24.9651 33.1197 25.0514 33.3115 25.2432Z" fill="#b4bfc3"/>
<path d="M14.7965 24.0542C14.7965 24.4763 14.787 24.4859 14.4993 24.4859C14.2404 24.4859 14.2117 24.5146 14.2404 24.7448C14.2596 24.9559 14.3267 25.023 14.5377 25.0422C14.7965 25.071 14.7965 25.0805 14.7965 25.7616C14.7965 26.4905 14.9308 27.1236 15.1034 27.2291C15.3335 27.373 15.88 27.4305 16.1964 27.3442C16.4841 27.2675 16.532 27.2195 16.5032 26.9989C16.4745 26.7591 16.4457 26.7399 16.0526 26.7687C15.7745 26.7975 15.6115 26.7591 15.554 26.6728C15.5061 26.6056 15.4677 26.2124 15.4677 25.7999V25.0614H15.9471C16.4169 25.0614 16.4265 25.0518 16.4265 24.7736C16.4265 24.4955 16.4169 24.4859 15.9471 24.4859H15.4677V24.0542C15.4677 23.6226 15.4677 23.6226 15.1321 23.6226C14.7965 23.6226 14.7965 23.6226 14.7965 24.0542Z" fill="#b4bfc3"/>
<path d="M3.38619 24.5521C3.22319 24.6672 3.14649 24.6768 3.11772 24.6001C3.09855 24.5329 2.95473 24.485 2.80132 24.485H2.51367L2.54244 25.8949L2.5712 27.3145L2.82049 27.3433C3.03143 27.3721 3.07937 27.3241 3.1369 27.0651C3.16567 26.9021 3.19443 26.4417 3.19443 26.058C3.19443 25.4729 3.23278 25.3098 3.38619 25.1564C3.6259 24.9166 3.97107 24.907 4.25871 25.1468C4.46007 25.3098 4.48883 25.4154 4.51759 26.3458L4.55595 27.3721L4.81483 27.3433C5.06412 27.3145 5.06412 27.3049 5.11206 26.3266C5.16 25.4249 5.17918 25.3098 5.39012 25.1468C5.67776 24.907 6.02293 24.9166 6.26264 25.1564C6.42563 25.3194 6.4544 25.4729 6.4544 26.2307C6.4544 27.2282 6.52152 27.3913 6.84751 27.3433C7.07763 27.3145 7.07763 27.2953 7.06804 26.3074C7.06804 25.7511 7.03928 25.1756 7.00092 25.0317C6.83792 24.4274 5.76405 24.178 5.2367 24.6192L4.96824 24.8494L4.69977 24.6192C4.37377 24.3411 3.74095 24.3027 3.38619 24.5521Z" fill="#b4bfc3"/>
<path d="M8.51644 24.485C8.41097 24.5233 8.20003 24.696 8.03703 24.859C7.80692 25.1084 7.74939 25.2523 7.72062 25.7702C7.67268 26.4896 7.84527 26.8925 8.3055 27.1706C8.67944 27.4008 9.48485 27.4296 9.78208 27.2186C9.96426 27.0939 9.99302 27.0939 10.041 27.2282C10.0793 27.3241 10.1944 27.3625 10.3574 27.3433L10.6258 27.3145V25.9237V24.5329L10.3478 24.5041C10.1944 24.485 10.041 24.5137 10.0026 24.5713C9.96426 24.648 9.83961 24.6384 9.59032 24.5329C9.20679 24.3794 8.81368 24.3603 8.51644 24.485ZM9.70538 25.2139C9.95467 25.4249 10.0026 25.5305 10.0026 25.8853C10.0026 26.4321 9.6862 26.787 9.20679 26.787C8.52603 26.787 8.13292 26.1635 8.41097 25.5017C8.65068 24.9358 9.22597 24.8111 9.70538 25.2139Z" fill="#b4bfc3"/>
<path d="M11.8723 24.5231C11.5751 24.6478 11.3449 25.0123 11.3449 25.3384C11.3449 25.7029 11.7093 26.0099 12.3038 26.125C12.6202 26.1825 12.927 26.2976 12.9845 26.3648C13.2914 26.7388 12.5914 27.0074 11.9682 26.7484C11.4983 26.547 11.4888 26.547 11.3641 26.8443C11.2586 27.065 11.2682 27.0937 11.6038 27.2376C12.0736 27.439 12.9366 27.439 13.3201 27.2376C13.6653 27.0554 13.8858 26.6045 13.7996 26.2592C13.7228 25.9427 13.3681 25.7221 12.7065 25.5974C12.2558 25.5015 12.1504 25.4439 12.1312 25.2713C12.1024 25.1178 12.1599 25.0507 12.3421 25.0027C12.5722 24.9452 13.0996 25.0027 13.3968 25.1178C13.464 25.1466 13.5694 25.0507 13.627 24.9164C13.7324 24.6862 13.7228 24.6574 13.4064 24.5231C13.0037 24.3601 12.2558 24.3505 11.8723 24.5231Z" fill="#b4bfc3"/>
<path d="M17.6923 24.5807C17.328 24.8013 17.0115 25.4247 17.002 25.9043C17.002 26.3551 17.2129 26.806 17.5868 27.1129C17.8841 27.3623 17.9512 27.3815 18.6032 27.3431C19.3894 27.3047 19.725 27.1129 19.5237 26.806C19.4661 26.7196 19.3415 26.6525 19.2456 26.6717C19.1401 26.6909 18.8429 26.7292 18.5744 26.758C18.1238 26.806 18.0662 26.7868 17.8841 26.547C17.769 26.4031 17.6731 26.24 17.6731 26.2017C17.6731 26.1537 18.1525 26.1153 18.7278 26.1153H19.7825V25.7509C19.7825 24.6958 18.6032 24.0339 17.6923 24.5807ZM18.9196 25.1562C19.2839 25.5207 19.1785 25.6358 18.4498 25.6358C18.0758 25.6358 17.7498 25.5974 17.7211 25.5398C17.6923 25.4919 17.769 25.3384 17.9032 25.2041C18.2005 24.9068 18.6511 24.8876 18.9196 25.1562Z" fill="#b4bfc3"/>
<path d="M21.3947 24.5329C21.2317 24.6288 21.1167 24.6384 21.0783 24.5809C21.0496 24.5329 20.8961 24.4849 20.7331 24.4849H20.4551V25.9333V27.3721L20.7715 27.3433L21.0783 27.3145L21.1071 26.2882C21.1358 25.3098 21.1454 25.2427 21.366 25.0988C21.5002 25.0125 21.7111 24.9645 21.855 24.9933C22.0467 25.0221 22.1139 24.9837 22.1906 24.8015C22.2385 24.6672 22.2577 24.5233 22.2193 24.4753C22.1426 24.3411 21.692 24.3794 21.3947 24.5329Z" fill="#b4bfc3"/>
<path d="M23.2339 24.5723C22.7257 24.8313 22.4476 25.378 22.4956 26.0015C22.5531 26.8743 23.138 27.3923 24.0489 27.3827C24.6434 27.3827 24.9598 27.2388 24.9598 26.9894C24.9598 26.7113 24.7201 26.5578 24.4899 26.6825C24.1064 26.8935 23.6558 26.8072 23.3873 26.4906C23.0325 26.0782 23.0517 25.6178 23.4256 25.2341C23.7325 24.9368 23.9626 24.908 24.6338 25.1094C24.7776 25.1574 24.8543 25.1094 24.9406 24.9176C25.0461 24.6874 25.0365 24.6586 24.7201 24.5243C24.2694 24.3421 23.6366 24.3517 23.2339 24.5723Z" fill="#b4bfc3"/>
<path d="M26.1399 24.5433C25.2002 25.0133 25.1427 26.6247 26.044 27.1714C26.4275 27.4112 27.1754 27.4208 27.5014 27.2098C27.7219 27.0659 27.7411 27.0659 27.7411 27.2098C27.7411 27.3153 27.8274 27.3633 28.0287 27.3633H28.3163V25.9245V24.4857H28.0383C27.8849 24.4857 27.7411 24.5337 27.7219 24.5816C27.7027 24.6488 27.5685 24.6296 27.3384 24.5337C26.8877 24.3514 26.533 24.3514 26.1399 24.5433ZM27.463 25.2435C28.0575 25.8382 27.7027 26.7878 26.8877 26.7878C26.5809 26.7878 26.4659 26.7302 26.2549 26.4808C26.0344 26.2219 26.0056 26.1068 26.044 25.7902C26.1495 25.0037 26.9261 24.7063 27.463 25.2435Z" fill="#b4bfc3"/>
<path d="M30.0606 24.5424C29.9456 24.6192 29.8497 24.6384 29.8497 24.5904C29.8497 24.5328 29.6963 24.4849 29.5141 24.4849H29.1689L29.1977 25.8949L29.2265 27.3145H29.5141H29.8018L29.8305 26.3073C29.8593 25.1755 29.9743 24.9645 30.5688 24.9645C30.866 24.9645 30.9907 24.811 31.0003 24.4561C31.0003 24.3314 30.2812 24.389 30.0606 24.5424Z" fill="#b4bfc3"/>
</svg>
