<svg width="54" height="10" viewBox="0 0 54 10" fill="none" xmlns="http://www.w3.org/2000/svg">
<path d="M2.18467 0.31998C2.1655 0.387131 1.94497 1.5191 1.70527 2.84292C1.46556 4.15715 1.12039 6.04696 0.938213 7.02543C0.756039 8.0135 0.59304 8.91524 0.583452 9.03995L0.554688 9.27018L1.95456 9.29896C2.99966 9.31814 3.38319 9.28936 3.4599 9.20303C3.50784 9.13588 3.75713 7.90798 4.00642 6.48823C4.25571 5.05888 4.48583 3.86936 4.52418 3.83099C4.56253 3.78303 4.994 4.93418 5.48299 6.37311C5.98158 7.80246 6.42263 9.05913 6.47057 9.14547C6.54728 9.30855 6.90204 9.31814 11.8591 9.31814H17.1709L17.2189 9.09751C17.2477 8.98239 17.5161 7.54345 17.8134 5.91265C18.1202 4.27226 18.3982 2.77577 18.4462 2.57432L18.5421 2.21938H19.357H20.1816L20.1241 2.47839C19.9419 3.33216 18.916 9.00158 18.916 9.14547C18.916 9.30855 19.5392 9.31814 32.9434 9.29896L46.9613 9.27018L47.0668 8.79053C47.1339 8.52193 47.3161 7.56264 47.4887 6.65131C47.6613 5.73998 47.8147 5.01092 47.8338 5.03011C47.8626 5.04929 48.1407 5.97021 48.4762 7.0734C48.8022 8.17658 49.1091 9.13588 49.1474 9.19343C49.2337 9.32774 52.091 9.3757 52.091 9.2414C52.091 9.20303 51.7937 8.38763 51.4294 7.42834L50.7678 5.67283L51.1705 5.56731C52.4266 5.23156 53.0498 4.47372 53.2128 3.09234C53.3566 1.84526 52.695 0.87637 51.4102 0.473467C50.7486 0.262423 50.5473 0.25283 48.2174 0.25283H45.734L45.1204 3.61035C44.7848 5.45219 44.4972 7.02543 44.4684 7.08299C44.4205 7.23648 39.914 7.26526 39.914 7.11177C39.914 7.03503 40.0291 6.41149 40.1633 5.78795C40.2017 5.5769 40.2304 5.5769 41.5824 5.5769H42.9535L43.0685 4.87662C43.1356 4.50249 43.2124 4.10919 43.2315 4.01326C43.2795 3.85977 43.174 3.85018 41.9371 3.85018C40.3838 3.85018 40.4893 3.93651 40.7003 2.83333L40.8057 2.21938H42.2248H43.6438L43.7109 1.85485C43.7493 1.66299 43.826 1.21212 43.8931 0.847591L44.0178 0.204865H41.1221H38.2361L37.68 3.30338C37.3636 5.00133 37.0951 6.48823 37.0663 6.60334C37.0184 6.81439 36.9801 6.82398 35.9637 6.82398C34.9186 6.82398 34.909 6.82398 34.957 6.60334C34.9857 6.48823 35.2542 5.07807 35.5514 3.46646C35.8487 1.85485 36.1075 0.463874 36.1363 0.367945C36.1842 0.214458 36.0692 0.204865 34.6693 0.204865H33.1448L32.838 1.80688C32.675 2.69903 32.3969 4.18593 32.2243 5.11644L31.9175 6.82398H30.8724C29.9328 6.82398 29.8369 6.8048 29.8848 6.65131C29.9136 6.56497 30.1725 5.174 30.4697 3.56239C30.7669 1.95078 31.0354 0.540618 31.0642 0.41591L31.1121 0.204865H29.5972H28.0727L27.507 3.29379C27.1906 5.00133 26.8933 6.57457 26.8454 6.7952L26.7591 7.2077H24.4675H22.1664L22.2335 6.84317C22.2718 6.65131 22.3485 6.29637 22.4061 6.05655L22.5115 5.62487L23.8731 5.59609C25.1962 5.5769 25.2442 5.56731 25.2825 5.35626C25.4359 4.64639 25.5318 4.10919 25.5318 3.99407C25.5318 3.87896 25.3017 3.85018 24.1895 3.85018C22.665 3.85018 22.78 3.94611 22.9718 2.89088L23.0868 2.26734L24.5346 2.23857L25.9825 2.20979L26.1359 1.27927C26.2317 0.770848 26.2989 0.31998 26.2989 0.272016C26.2989 0.233644 22.2718 0.204865 17.3435 0.204865H8.3882L8.33067 0.463874C8.30191 0.617361 8.08138 1.80688 7.84168 3.13071C7.60198 4.44494 7.39104 5.56731 7.38145 5.61527C7.36227 5.66324 6.90204 4.46412 6.35552 2.95803L5.35835 0.204865H3.79548C2.62573 0.204865 2.21344 0.233644 2.18467 0.31998ZM49.5214 2.12345C50.0008 2.25775 50.2692 2.62228 50.2692 3.12111C50.2692 3.99407 49.6556 4.45453 48.5625 4.40657L47.9105 4.37779L48.1215 3.22664C48.2461 2.5935 48.342 2.06589 48.3516 2.04671C48.3612 1.98915 49.2145 2.03711 49.5214 2.12345ZM15.4643 2.38246C15.4643 2.53595 14.9465 5.39464 14.6876 6.69927L14.5917 7.2077H12.3098H10.0278L10.1812 6.41149L10.3442 5.62487L11.7728 5.5769L13.211 5.52894L13.3261 4.9054C13.537 3.75425 13.6521 3.85018 12.1276 3.85018C11.3989 3.85018 10.7757 3.83099 10.7469 3.80221C10.7181 3.77343 10.7277 3.5432 10.7757 3.29379C10.8236 3.04437 10.8811 2.69903 10.9099 2.52635L10.9674 2.21938H13.211C15.2917 2.21938 15.4643 2.22897 15.4643 2.38246Z" fill="#b4bfc3"/>
</svg>
