<svg width="39" height="14" viewBox="0 0 39 14" fill="none" xmlns="http://www.w3.org/2000/svg">
<path d="M26.9527 0.417729C26.435 0.724667 26.2432 1.0412 26.2048 1.70303C26.1761 2.18262 26.2048 2.33609 26.3966 2.60466C27.2595 3.88996 29.2539 3.34323 29.2539 1.81813C29.2539 0.590381 27.9786 -0.186555 26.9527 0.417729Z" fill="#b4bfc3"/>
<path d="M4.01784 0.982979C2.77138 1.13647 1.77422 1.61611 1.06469 2.39314C0.422289 3.09342 0.172998 3.77452 0.16341 4.82014C0.153822 5.53961 0.192174 5.71228 0.451054 6.25908C0.834579 7.0457 1.31399 7.52534 2.16733 7.94743C2.79056 8.2544 4.00825 8.56138 4.59313 8.56138C5.00542 8.56138 5.57112 8.75324 5.77247 8.95469C5.88753 9.0698 5.95464 9.27125 5.95464 9.51108C5.95464 10.3073 4.97665 10.7486 3.42338 10.643C2.6755 10.5951 1.10305 10.2689 0.566111 10.0483C0.403113 9.98113 0.393525 10.0867 0.393525 11.4201V12.859L1.23728 13.0125C4.31507 13.5785 6.6354 13.3578 8.08321 12.3602C9.20502 11.6023 9.75154 10.4896 9.67484 9.13695C9.55019 7.03611 8.05444 5.8274 5.13965 5.50124C4.2096 5.38612 3.86443 5.22305 3.71102 4.78177C3.58637 4.44602 3.7302 4.08149 4.06578 3.82248C4.28631 3.6594 4.50683 3.61144 5.24512 3.59225C6.42446 3.54429 7.72845 3.7937 9.08996 4.31172C9.18584 4.35009 9.21461 4.08149 9.21461 2.95912V1.56815L8.71602 1.41466C7.40245 1.03094 5.25471 0.829492 4.01784 0.982979Z" fill="#b4bfc3"/>
<path d="M32.9456 1.07895C32.4758 1.17487 31.7663 1.29958 31.3923 1.36673L30.6924 1.48185V7.32393V13.166H32.2745H33.8565V7.02655C33.8565 3.64985 33.8469 0.887087 33.8373 0.89668C33.8182 0.906273 33.425 0.983016 32.9456 1.07895Z" fill="#b4bfc3"/>
<path d="M37.8836 1.03196C37.5384 1.09911 36.8385 1.22382 36.3303 1.31974L35.3906 1.48282V7.32491V13.167H36.9727H38.5548V7.02753C38.5548 3.65082 38.5452 0.888063 38.5356 0.897656C38.5164 0.897656 38.2288 0.964807 37.8836 1.03196Z" fill="#b4bfc3"/>
<path d="M12.4273 1.18545C11.9575 1.28138 11.3343 1.41568 11.0658 1.47323L10.5576 1.56916V7.37287V13.167H12.1876H13.8176L13.8368 11.4115L13.8655 9.66558L14.3162 10.5769C14.5655 11.0757 14.8723 11.8528 14.9969 12.3036L15.2366 13.119L17.2214 13.1478L19.1965 13.167L19.139 12.9559C18.9185 12.2365 18.4007 11.047 17.835 9.93418C17.4707 9.2339 17.1734 8.61995 17.1734 8.57199C17.1734 8.53362 17.4131 8.14031 17.7104 7.69903C18.3911 6.67259 19.0527 5.34877 19.3212 4.45663L19.3883 4.24559H17.5186H15.6393L15.3613 4.85953C15.064 5.51185 14.1819 6.94119 13.9614 7.12346C13.8368 7.22898 13.8176 6.84526 13.8176 4.11128V0.983996L13.5587 0.993589C13.4053 1.00318 12.9067 1.08952 12.4273 1.18545Z" fill="#b4bfc3"/>
<path d="M23.5017 4.14965C21.7375 4.37988 20.6157 5.1665 20.0787 6.54788C19.9349 6.91241 19.9062 7.43043 19.8774 10.0685L19.8486 13.167H21.4786H23.1182V10.5481C23.1182 8.25542 23.1373 7.90048 23.2908 7.61269C23.5209 7.15224 23.8373 6.95078 24.5372 6.81648L25.1317 6.70137V5.4351C25.1317 4.37029 25.1125 4.15925 24.9783 4.11128C24.7961 4.04413 24.2112 4.05372 23.5017 4.14965Z" fill="#b4bfc3"/>
<path d="M26.0889 8.70531V13.166H27.6709H29.253V8.70531V4.24461H27.6709H26.0889V8.70531Z" fill="#b4bfc3"/>
</svg>
