<svg width="46" height="27" viewBox="0 0 46 27" fill="none" xmlns="http://www.w3.org/2000/svg">
<path d="M23.4772 1.02921C22.4033 1.31699 21.7226 1.99809 21.5116 3.00535C21.2527 4.25243 21.6267 4.8376 23.4293 6.02712C24.273 6.58351 24.436 6.79455 24.2538 7.1303C23.8895 7.821 22.5376 7.80181 21.3199 7.08234L20.9267 6.85211L20.3802 7.66751C20.0734 8.11838 19.8433 8.51169 19.8624 8.53087C19.8816 8.55006 20.198 8.70354 20.5624 8.86662C22.6047 9.79714 25.088 9.54772 26.0181 8.32942C26.4783 7.72507 26.6797 7.15908 26.6317 6.55473C26.5742 5.73933 26.1715 5.2405 24.8867 4.36754C23.7457 3.58092 23.5635 3.3411 23.8128 2.96698C24.1484 2.43937 25.0305 2.45855 25.9126 3.00535L26.4112 3.31232L26.7276 2.94779C26.9002 2.73675 27.1687 2.41059 27.3317 2.21873L27.6193 1.8542L27.1591 1.56641C26.1907 0.952462 24.6182 0.722232 23.4772 1.02921Z" fill="#b4bfc3"/>
<path d="M8.33789 1.17153C8.33789 1.27705 8.57759 1.37298 8.83647 1.37298C9.12412 1.37298 9.73776 2.03489 9.8624 2.47617C9.91034 2.68721 10.1117 4.26045 10.3035 5.96799C10.524 8.03046 10.6774 9.10487 10.7541 9.16243C10.9554 9.28713 12.7868 9.25835 12.9594 9.11446C13.0744 9.02813 16.8426 2.4378 17.437 1.29624L17.5521 1.0852H16.3727L15.1934 1.09479L14.2825 2.68721C13.7839 3.56017 13.1415 4.69213 12.8731 5.20055C12.595 5.70898 12.3649 6.03514 12.3649 5.92962C12.3649 5.82409 12.2978 4.78806 12.2211 3.62732C12.1444 2.46658 12.0773 1.42095 12.0773 1.29624V1.0852H10.2076C9.17206 1.0852 8.33789 1.12357 8.33789 1.17153Z" fill="#b4bfc3"/>
<path d="M18.627 1.24948C18.5887 1.34541 18.0326 3.14888 17.3901 5.25932C16.4793 8.27149 16.2587 9.11567 16.3546 9.17322C16.4313 9.2116 16.9299 9.23078 17.4669 9.22119L18.4544 9.19241L19.6242 5.35525C20.2666 3.24481 20.8131 1.42215 20.8515 1.29745C20.8994 1.0864 20.8994 1.0864 19.7968 1.0864C18.8284 1.0864 18.6846 1.10559 18.627 1.24948Z" fill="#b4bfc3"/>
<path d="M30.804 1.20155C30.6793 1.403 26.5756 9.09651 26.5948 9.10611C26.5948 9.1157 27.1317 9.14448 27.7837 9.18285L28.9631 9.25L29.2411 8.62646L29.5288 7.99333H30.8615H32.1847L32.2518 8.5689L32.3189 9.14448H33.4407H34.5721L34.2078 5.23057C34.016 3.08176 33.853 1.2687 33.8434 1.20155C33.8434 1.11522 33.4791 1.08644 32.3669 1.08644C31.2834 1.08644 30.8615 1.11522 30.804 1.20155ZM32.0888 6.42009C32.0696 6.44887 31.6573 6.44887 31.1875 6.43928L30.3246 6.4105L31.1492 4.58785L31.9738 2.7652L32.0505 4.56866C32.0984 5.56632 32.108 6.40091 32.0888 6.42009Z" fill="#b4bfc3"/>
<path d="M28.2331 11.4464C24.3978 11.6191 20.4955 12.4249 16.4876 13.8638C14.3111 14.6408 10.543 16.3292 10.543 16.521C10.543 16.6745 10.6293 16.6553 11.636 16.2428C14.896 14.919 18.7696 13.9501 22.1638 13.6048C25.7881 13.2403 28.8371 13.3362 32.6244 13.9501C33.6695 14.1132 34.5517 14.2283 34.5804 14.19C34.6188 14.1516 34.6667 13.5664 34.6859 12.8853L34.7242 11.6574L34.2161 11.5999C33.3148 11.5039 30.7739 11.3505 30.2658 11.3696C29.9877 11.3696 29.0768 11.408 28.2331 11.4464Z" fill="#b4bfc3"/>
<path d="M7.16886 18.0355L6.90039 18.0739V22.2468V26.4102H7.90715H8.91391V22.2468V18.0835L8.61667 18.026C8.30026 17.9684 7.60992 17.9684 7.16886 18.0355Z" fill="#b4bfc3"/>
<path d="M0.312146 18.707C0.216265 18.7454 0.1875 19.58 0.1875 22.4291C0.1875 24.4532 0.216265 26.1703 0.245029 26.2567C0.29297 26.391 0.628556 26.4102 2.92972 26.4102H5.55688V25.7482C5.55688 24.7122 5.67194 24.7794 3.87895 24.7794H2.32566L2.26813 24.3189C2.23937 24.0695 2.23937 23.7529 2.26813 23.5994L2.31607 23.3404H3.93648H5.55688V22.573V21.8056H3.92689H2.2969V21.0861V20.3666H3.85977C4.71312 20.3666 5.461 20.3283 5.50894 20.2899C5.63358 20.2035 5.68152 19.5608 5.60482 19.0428L5.54729 18.6399L2.98725 18.6495C1.57779 18.6495 0.369675 18.6783 0.312146 18.707Z" fill="#b4bfc3"/>
<path d="M23.3617 18.8996C23.3233 18.9284 23.2946 19.3601 23.2946 19.8589V20.751H22.8631H22.4316V21.4609V22.1804L22.8439 22.2092L23.2466 22.238L23.2083 23.581C23.1699 25.2405 23.285 25.8929 23.6877 26.2766C23.9466 26.526 24.052 26.5548 24.7328 26.5835C25.4998 26.6219 26.3052 26.4492 26.6696 26.1806C26.823 26.0655 26.823 26.0176 26.6217 25.4132C26.4395 24.8472 26.3915 24.7801 26.219 24.828C25.6533 25.0199 25.4231 24.9911 25.2601 24.7417C25.1163 24.5307 25.1067 24.3388 25.1643 23.3411L25.2314 22.19H25.9793C26.8326 22.19 26.8422 22.1804 26.8422 21.2595V20.7606L26.056 20.7319L25.2601 20.7031L25.2314 19.763L25.2026 18.8325H24.3109C23.8219 18.8325 23.3905 18.8612 23.3617 18.8996Z" fill="#b4bfc3"/>
<path d="M12.0558 20.7033C11.4422 20.9048 10.6176 21.6722 10.282 22.3629C9.80261 23.3414 9.96561 24.8474 10.6464 25.6724C11.4518 26.6509 13.331 26.9291 14.7789 26.2864C15.5363 25.9506 15.6034 25.8259 15.335 25.3271C14.9706 24.646 14.961 24.646 14.3378 24.9338C13.8776 25.1448 13.6858 25.1832 13.216 25.1448C12.7366 25.1064 12.5928 25.0585 12.3626 24.8187C12.2092 24.6652 12.075 24.4349 12.0558 24.3006L12.0271 24.0608L13.983 24.032L15.9294 24.0129L15.8719 23.4565C15.7089 22.1039 15.2583 21.2789 14.4529 20.8664C13.8776 20.569 12.7174 20.4923 12.0558 20.7033ZM13.5995 21.9408C13.8584 22.0751 14.0885 22.4492 14.0885 22.7178C14.0885 22.8329 13.8967 22.8617 13.0818 22.8617C11.9983 22.8617 11.9312 22.8233 12.2284 22.3917C12.4202 22.1231 12.9188 21.8065 13.1585 21.8065C13.2543 21.8065 13.4461 21.864 13.5995 21.9408Z" fill="#b4bfc3"/>
<path d="M18.6064 20.7602C17.2928 21.1822 16.4778 22.5157 16.6121 23.993C16.7846 25.8444 18.2133 26.8516 20.2556 26.583C20.8405 26.5063 21.761 26.161 21.761 26.0171C21.761 25.9499 21.2528 24.9618 21.1281 24.7988C21.1185 24.7796 20.8693 24.8371 20.572 24.9331C20.131 25.0674 19.9775 25.077 19.6707 24.9906C18.3475 24.5877 18.2421 22.6979 19.5173 22.2854C19.8529 22.1703 20.6967 22.1991 20.9939 22.3238C21.109 22.3718 21.224 22.2279 21.4541 21.7578C21.6267 21.4029 21.7418 21.0863 21.713 21.0383C21.6076 20.8657 20.7158 20.6354 19.9871 20.5971C19.3831 20.5683 19.0858 20.5971 18.6064 20.7602Z" fill="#b4bfc3"/>
<path d="M30.8394 20.6554C30.6284 20.6938 30.3504 20.8473 30.1682 21.0295C29.7751 21.4036 29.7176 21.4036 29.7176 21.0391V20.7513H28.778H27.8287L27.7712 22.0656C27.7329 22.785 27.7041 24.0513 27.7041 24.8955V26.4111H28.7108H29.7176V24.8475C29.7176 23.14 29.7559 22.9961 30.2929 22.7179C30.4463 22.6411 30.801 22.574 31.0887 22.574H31.6064L31.7311 21.6627C31.7982 21.1542 31.8365 20.7321 31.8174 20.713C31.7119 20.6266 31.1654 20.5978 30.8394 20.6554Z" fill="#b4bfc3"/>
<path d="M34.3889 20.6639C33.4588 20.8845 32.7206 21.5081 32.3946 22.3714C32.1069 23.1484 32.1645 24.4243 32.5288 25.1246C33.0178 26.0839 34.0053 26.6211 35.2805 26.6307C36.5557 26.6403 37.4474 26.247 37.9939 25.4316C38.8473 24.1461 38.6459 22.2083 37.5529 21.2778C36.853 20.6735 35.4723 20.4049 34.3889 20.6639ZM35.9996 22.3043C36.5557 22.736 36.6996 23.7336 36.316 24.4915C36.1339 24.8464 36.0188 24.9423 35.7024 25.0479C34.6573 25.3836 33.8903 24.2708 34.2738 22.9758C34.3889 22.5921 34.5039 22.4194 34.734 22.2851C35.1463 22.0357 35.6641 22.0357 35.9996 22.3043Z" fill="#b4bfc3"/>
<path d="M42.6122 20.6746C42.4588 20.7321 42.1616 20.8856 41.9698 21.0103C41.5192 21.2885 41.5096 21.2885 41.5096 20.9911C41.5096 20.7513 41.5096 20.7513 40.5604 20.7513C39.6591 20.7513 39.6112 20.7609 39.5536 20.9624C39.5249 21.0871 39.4961 22.3629 39.4961 23.7923V26.4111H40.5028H41.5096V24.7516C41.5096 23.8498 41.5383 23.0152 41.5671 22.9001C41.6246 22.6699 42.2479 22.2862 42.5451 22.2862C42.6506 22.2862 42.8327 22.3725 42.9574 22.4684C43.1875 22.6507 43.1875 22.6891 43.2163 24.5309L43.2546 26.4111H44.2038H45.1626L45.1339 24.0801C45.1051 21.4708 45.0476 21.231 44.4148 20.8377C44.0312 20.5978 43.0533 20.5019 42.6122 20.6746Z" fill="#b4bfc3"/>
</svg>
