<svg width="47" height="16" viewBox="0 0 47 16" fill="none" xmlns="http://www.w3.org/2000/svg">
<path d="M29.0167 0.414859C26.9457 0.817761 25.4883 1.78665 24.7788 3.22558C24.4624 3.86831 24.4144 4.05057 24.3857 4.8276C24.3569 5.54707 24.3857 5.79648 24.5582 6.24735C24.9322 7.2546 25.9965 8.19471 27.7703 9.08685C28.6811 9.54731 29.1318 9.86388 29.3715 10.2284C29.8221 10.9191 29.3619 11.7153 28.3552 12.0319C27.3005 12.3484 25.5075 12.1566 24.1172 11.5714C23.8104 11.4371 23.5227 11.3604 23.494 11.3891C23.3597 11.5234 22.8036 14.3917 22.8899 14.4781C23.0625 14.6507 24.8267 15.0536 25.8814 15.1592C30.407 15.6004 33.6478 13.4228 33.456 10.0653C33.3602 8.40575 32.689 7.64791 30.0427 6.1802C29.4961 5.88282 28.8537 5.44154 28.614 5.21131C28.2209 4.83719 28.1826 4.77004 28.2401 4.48225C28.4798 3.30233 30.407 2.96657 32.7369 3.70523C33.1492 3.82994 33.504 3.92586 33.5136 3.90668C33.5232 3.88749 33.6766 3.23517 33.8492 2.44856C34.2231 0.750611 34.2806 0.875319 32.9575 0.558752C31.8548 0.299744 29.9851 0.232593 29.0167 0.414859Z" fill="#b4bfc3"/>
<path d="M0.434678 0.713653C0.348384 0.93429 0.453854 1.01103 1.03873 1.13574C2.6016 1.49068 4.27953 2.20055 4.60553 2.67061C4.73976 2.86246 5.32464 4.92494 6.35057 8.88681C7.19433 12.1484 7.91344 14.844 7.96139 14.892C7.99974 14.9303 8.91061 14.9495 9.98449 14.9399L11.9405 14.9112L14.9416 7.76444C16.5907 3.83135 17.9427 0.608131 17.9427 0.588945C17.9427 0.579352 17.051 0.579352 15.9675 0.588945L13.9923 0.617724L12.1514 5.27029C11.1351 7.83159 10.2817 10.0092 10.2434 10.1051C10.205 10.201 10.1571 10.2682 10.1379 10.249C10.1187 10.2298 9.74478 8.33042 9.31332 6.03772C8.44079 1.38516 8.37368 1.15493 7.69292 0.790396C7.27104 0.56976 7.24227 0.56976 3.87683 0.56976C1.00038 0.56976 0.482618 0.588945 0.434678 0.713653Z" fill="#b4bfc3"/>
<path d="M19.5344 0.732694C19.496 0.876588 16.7346 13.7311 16.5429 14.6904L16.4854 14.959H18.3167C20.1289 14.959 20.1576 14.959 20.2439 14.7383C20.2919 14.6232 20.9822 11.4863 21.778 7.7643C22.5643 4.04225 23.2354 0.905367 23.2642 0.780659L23.3121 0.569615H21.452C19.7549 0.569615 19.5823 0.588801 19.5344 0.732694Z" fill="#b4bfc3"/>
<path d="M39.7554 0.70294C39.5924 0.770091 39.3527 0.961949 39.2184 1.11544C39.0267 1.34567 37.7323 4.34825 33.7053 13.9795L33.293 14.958L35.2777 14.9388L37.2625 14.91L37.598 13.9795C37.7802 13.4615 37.9816 13.0011 38.0391 12.9435C38.1062 12.8763 38.9404 12.8572 40.4745 12.8668L42.814 12.8955L42.9866 13.7109C43.0825 14.1618 43.1783 14.6223 43.2071 14.7374C43.2551 14.958 43.2742 14.958 44.9809 14.958C45.9301 14.958 46.7068 14.9484 46.7068 14.9292C46.7068 14.9196 46.0356 11.7156 45.2206 7.81129C44.4056 3.90697 43.7345 0.683755 43.7345 0.645383C43.7345 0.511082 40.0718 0.559047 39.7554 0.70294ZM41.6155 7.13978C41.8839 8.45401 42.1045 9.61476 42.1045 9.70109C42.1045 9.85458 41.9702 9.87376 40.6183 9.87376C39.8033 9.87376 39.1322 9.84499 39.1322 9.81621C39.1322 9.62435 41.0018 4.60726 41.0594 4.67441C41.0881 4.71278 41.3374 5.81596 41.6155 7.13978Z" fill="#b4bfc3"/>
</svg>
