<svg width="33" height="34" viewBox="0 0 33 34" fill="none" xmlns="http://www.w3.org/2000/svg">
<path d="M16.4944 0.324945C16.4944 0.526397 16.5807 1.02523 16.6958 1.44732C16.8109 1.85981 16.9163 2.29149 16.9451 2.39701C16.9834 2.56969 16.8971 2.62724 16.3027 2.8191C15.9192 2.93422 15.1521 3.26997 14.596 3.54816C11.9401 4.89117 10.1471 6.90568 9.54302 9.26554C9.35126 9.9946 9.20744 11.4048 9.27455 11.7885C9.3225 12.0187 9.36085 11.9516 9.51426 11.3568C10.1471 8.82427 11.8921 6.93446 14.4426 6.00395C15.2 5.72575 16.7629 5.36122 16.8396 5.44756C16.8684 5.46675 16.7917 5.81209 16.6862 6.19581C16.5807 6.58912 16.4657 7.26062 16.4273 7.6923C16.3602 8.63241 16.4081 8.66119 17.2327 8.19113C18.5175 7.45248 19.5627 6.42604 20.5023 4.95832C21.2406 3.80717 21.1926 3.5002 20.0133 2.2819C18.9778 1.20749 18.019 0.555175 16.715 0.037158C16.5136 -0.0395853 16.4944 -0.0203995 16.4944 0.324945Z" fill="#b4bfc3"/>
<path d="M22.7357 5.99442C22.7166 6.47406 22.3234 7.68277 21.9399 8.46939C21.2112 9.96588 19.6004 11.3856 17.9129 12.038C17.0404 12.3833 15.5638 12.767 15.4775 12.6903C15.4487 12.6615 15.4967 12.3833 15.583 12.0763C15.6693 11.7598 15.7651 11.0595 15.7939 10.5223L15.8514 9.52461L15.4296 9.73565C13.579 10.6758 11.4121 13.2179 11.4121 14.465C11.4121 14.8007 11.4792 14.983 11.7477 15.3283C12.1983 15.9231 13.3106 16.8536 14.1543 17.3524C14.8447 17.7553 15.8706 18.1678 15.9665 18.0719C16.0432 17.9951 15.8418 16.9687 15.6213 16.2876C15.5158 15.9519 15.4487 15.6449 15.4775 15.5969C15.5158 15.549 15.698 15.453 15.8994 15.3859C17.2801 14.935 19.0635 13.8606 20.1853 12.7862C21.355 11.683 22.0933 10.5223 22.5248 9.11212C22.7933 8.24875 22.9658 6.64674 22.8412 6.13831C22.7741 5.86012 22.7453 5.82175 22.7357 5.99442Z" fill="#b4bfc3"/>
<path d="M0 18.9143C0 19.2117 2.50251 27.711 2.59839 27.7782C2.74221 27.8645 4.31467 27.9029 4.31467 27.8166C4.31467 27.6631 5.58031 21.4565 5.63784 21.303C5.68578 21.1879 5.94466 22.2719 6.36654 24.3247C6.7213 26.0898 7.03771 27.6055 7.05689 27.6919C7.10483 27.8358 7.22948 27.8645 7.94859 27.8645C8.51429 27.8645 8.8307 27.8262 8.89782 27.7398C8.97452 27.6439 11.4099 19.1062 11.4099 18.9143C11.4099 18.876 11.0264 18.8472 10.547 18.8472C9.76075 18.8472 9.67446 18.8664 9.5594 19.0582C9.48269 19.1829 9.12793 20.6027 8.76358 22.2239C8.39923 23.8451 8.07323 25.1401 8.04447 25.1018C8.00612 25.0634 7.75682 23.9314 7.47877 22.5884C7.20071 21.2454 6.91307 19.8544 6.83636 19.4899L6.69254 18.8472H5.80084C5.11049 18.8472 4.87079 18.8856 4.75573 19.0007C4.66944 19.0774 4.60232 19.1829 4.60232 19.2213C4.60232 19.3076 3.57639 24.6413 3.49968 24.9771C3.47092 25.1018 3.42297 25.1881 3.4038 25.1689C3.38462 25.1401 3.06821 23.7588 2.69427 22.08C2.32992 20.4108 2.00393 19.0007 1.96557 18.9431C1.89846 18.8376 0 18.8088 0 18.9143Z" fill="#b4bfc3"/>
<path d="M12.4688 23.3566V27.8652H13.3796H14.2905V23.3566V18.8479H13.3796H12.4688V23.3566Z" fill="#b4bfc3"/>
<path d="M16.1113 23.3566V27.8652H17.0222H17.9331V26.1385V24.4118H19.3713C21.3561 24.4118 21.2698 24.3159 21.4328 26.762C21.4711 27.2321 21.5382 27.6734 21.5958 27.7405C21.6629 27.8269 22.008 27.8652 22.6888 27.8652H23.686L23.4942 27.4815C23.3408 27.1937 23.2833 26.8388 23.2449 25.9275C23.1778 24.5653 23.0052 24.0377 22.5354 23.7595L22.2382 23.5772L22.6217 23.2702C22.8422 23.0976 23.1107 22.7426 23.2641 22.4356C23.4846 21.9752 23.5134 21.8313 23.475 21.2461C23.4175 20.4403 23.0915 19.8456 22.4683 19.3659C21.8738 18.915 21.3848 18.8479 18.6043 18.8479H16.1113V23.3566ZM21.0684 20.6322C21.2122 20.7377 21.4136 20.9871 21.5095 21.179C21.7396 21.6298 21.6053 22.1766 21.1835 22.5316C20.8958 22.7714 20.8575 22.781 19.4097 22.781H17.9331V21.649C17.9331 21.0255 17.9618 20.4787 18.0002 20.4403C18.0385 20.4019 18.6905 20.3828 19.4384 20.4019C20.6274 20.4307 20.8287 20.4595 21.0684 20.6322Z" fill="#b4bfc3"/>
<path d="M25.2168 23.3566V27.8652H28.6206H32.034L32.0052 27.069L31.9764 26.2824L29.5123 26.2536L27.0385 26.2344V25.0833V23.9321H29.1959H31.3532V23.1167V22.3013H29.1959H27.0385V21.39V20.4787H29.3876H31.7367V19.6633V18.8479H28.4768H25.2168V23.3566Z" fill="#b4bfc3"/>
<path d="M10.1502 29.0853C10.016 29.1045 9.853 29.1812 9.79547 29.2484C9.69 29.3731 8.34766 33.0951 8.34766 33.2486C8.34766 33.2966 8.53942 33.335 8.77912 33.335C9.18183 33.335 9.22018 33.3158 9.39277 32.9608C9.62288 32.5292 9.72835 32.4716 10.3995 32.4716C10.9365 32.4716 11.0803 32.5675 11.3008 33.0664C11.3967 33.3062 11.4638 33.335 11.8857 33.335H12.3651L12.2213 32.9225C12.135 32.7018 11.8186 31.7905 11.5022 30.8888C11.1858 29.9966 10.8981 29.2292 10.8598 29.2004C10.7543 29.0949 10.4283 29.0469 10.1502 29.0853ZM10.6776 31.1957L10.831 31.7042H10.3132C9.93929 31.7042 9.80506 31.6658 9.83382 31.5795C9.853 31.5219 9.96805 31.1574 10.0831 30.7928L10.2941 30.1213L10.4187 30.4091C10.4762 30.5626 10.6009 30.9271 10.6776 31.1957Z" fill="#b4bfc3"/>
<path d="M17.7692 29.152C17.2035 29.411 16.9446 30.1497 17.1939 30.7732C17.3665 31.1761 17.6637 31.3488 18.565 31.5694C18.9293 31.6558 19.3225 31.7901 19.4471 31.8572C19.7635 32.0587 19.7252 32.4328 19.3704 32.615C18.9006 32.8549 18.5266 32.7973 18.1527 32.4232C17.8842 32.1546 17.7404 32.0874 17.4432 32.0874C17.0117 32.0874 16.9734 32.2025 17.2322 32.7302C17.424 33.1427 18.1623 33.5264 18.7568 33.5264C19.3225 33.5264 20.0032 33.2674 20.2813 32.9316C20.473 32.711 20.521 32.5383 20.521 32.145C20.521 31.272 20.3867 31.1761 18.4403 30.6581C17.8555 30.495 17.7692 30.0345 18.2773 29.7947C18.6992 29.6029 18.9869 29.67 19.3416 30.025C19.6101 30.2936 19.7539 30.3607 20.0607 30.3607C20.4347 30.3607 20.4443 30.3607 20.3772 30.0441C20.2909 29.6796 20.1374 29.4398 19.8402 29.2287C19.5334 29.0177 18.1815 28.9697 17.7692 29.152Z" fill="#b4bfc3"/>
<path d="M0.384766 29.4498V29.7856H1.008H1.63123V31.5603V33.335H2.11064H2.59004V31.5603V29.7856H3.21327H3.8365V29.4498V29.1141H2.11064H0.384766V29.4498Z" fill="#b4bfc3"/>
<path d="M4.41309 31.2245V33.335H4.84455H5.27602V32.5196V31.7042H5.9376C6.76219 31.7042 6.90601 31.8193 6.90601 32.4812C6.90601 33.1623 7.02107 33.335 7.4813 33.335C7.86483 33.335 7.86483 33.335 7.85524 32.9704C7.84565 32.2222 7.70183 31.5795 7.52924 31.4548C7.35665 31.33 7.35665 31.3109 7.56759 31.119C7.98947 30.7257 8.047 30.0638 7.71141 29.5458C7.47171 29.1812 7.16489 29.1141 5.75543 29.1141H4.41309V31.2245ZM6.71425 29.9103C6.88683 29.9966 6.96354 30.1213 6.98271 30.3612C7.03065 30.8216 6.8293 30.9367 5.97596 30.9367H5.27602V30.4283C5.27602 30.1405 5.30479 29.8815 5.34314 29.8527C5.44861 29.7376 6.46495 29.7856 6.71425 29.9103Z" fill="#b4bfc3"/>
<path d="M12.9482 31.2245V33.335H13.3318H13.7153V31.8864C13.7153 31.0998 13.7536 30.4667 13.792 30.4955C13.8399 30.5242 14.2331 31.1766 14.6741 31.944L15.4699 33.335H15.9398H16.4V31.2245V29.1141H15.9685H15.5466L15.5179 30.4763L15.4891 31.8481L14.7796 30.6489C13.8687 29.1045 13.8687 29.1141 13.3605 29.1141H12.9482V31.2245Z" fill="#b4bfc3"/>
<path d="M21.2871 31.2245V33.335H21.7186H22.1405L22.1692 32.4428L22.198 31.5603L23.0897 31.5315L23.9718 31.5027V31.1286V30.7449H23.0513H22.1405L22.1692 30.2844L22.198 29.8335L23.2335 29.8048L24.2594 29.776V29.4498V29.1141H22.7733H21.2871V31.2245Z" fill="#b4bfc3"/>
<path d="M24.9287 31.2235V33.334H26.5683H28.1983L28.1695 32.9695L28.1407 32.6145L26.971 32.5857L25.7916 32.557V32.0389V31.5113H26.8463H27.901V31.1276V30.7439H26.8368H25.7821L25.8108 30.2834L25.8396 29.8326L26.923 29.8038L27.9969 29.775V29.4489V29.1131H26.4628H24.9287V31.2235Z" fill="#b4bfc3"/>
<path d="M28.959 31.2245V33.335H29.3905H29.8219V32.5196V31.7042H30.4835C31.2985 31.7042 31.3656 31.7809 31.4327 32.6635L31.4807 33.335H31.9409H32.4011L32.3532 32.7786C32.2765 31.8577 32.219 31.637 32.0368 31.4739C31.8642 31.3204 31.8642 31.3013 32.1327 31.0327C32.4587 30.7161 32.5066 30.1597 32.2669 29.6897C31.9984 29.162 31.8259 29.1141 30.3301 29.1141H28.959V31.2245ZM31.2026 29.8815C31.519 29.9966 31.6149 30.3803 31.4136 30.6969C31.2697 30.9175 31.193 30.9367 30.541 30.9367H29.8219V30.3612V29.7856H30.3876C30.704 29.7856 31.0684 29.824 31.2026 29.8815Z" fill="#b4bfc3"/>
</svg>
