<svg id="Layer_1" data-name="Layer 1" xmlns="http://www.w3.org/2000/svg" viewBox="0 0 576.32 227.74"><defs><style>.cls-1{fill:#10cfc9;}.cls-2{fill:#fff;}</style></defs><path class="cls-1" d="M568.83,97.06h0a20.68,20.68,0,0,1-4.35-7.78c-.86-2.89-1.19-9.88-1.19-20.88,0-9.75-1.12-16.73-3.16-21A17.8,17.8,0,0,0,550.32,38c-4.55-1.91-10.93-2.89-19.38-2.89H526.8V53.47c6.59,0,10.68.52,12.26,1.45a6.82,6.82,0,0,1,3,3.73c.46,1.32,1,5,1.18,15.35a127.48,127.48,0,0,0,1.32,18.51,26,26,0,0,0,3.63,9.29c1.77,2.77,4.94,5.6,9.35,8.63a24.16,24.16,0,0,0-9.22,8.5,33.91,33.91,0,0,0-3.95,10.67c-.6,3.76-.77,12.32-1.46,25.69-.24,4.74-1,7.84-2.5,9.29-1.71,1.51-6.2,2.73-13.57,2.73v18.35h4.29c7.24,0,12.84-.65,16.79-1.84a22.34,22.34,0,0,0,9.75-6.26,20.52,20.52,0,0,0,4.67-10.74,153.75,153.75,0,0,0,1-19.63c0-11.53,1.46-19.05,4.29-22.33s7.12-5.07,12.85-5.07V100.94c-5.73-.26-9.56-1.45-11.6-3.88" transform="translate(-4.11 -26.66)"/><path class="cls-1" d="M45.9,123.74h0a20.79,20.79,0,0,1,4.34,7.78c.86,2.9,1.19,9.88,1.19,20.88,0,9.75,1.12,16.73,3.17,21a17.75,17.75,0,0,0,9.8,9.35c4.55,1.91,10.93,2.89,19.38,2.89h4.14V167.33c-6.58,0-10.67-.52-12.25-1.45a6.78,6.78,0,0,1-3-3.73c-.46-1.32-1-5-1.19-15.35a124.57,124.57,0,0,0-1.32-18.51A26,26,0,0,0,66.57,119c-1.77-2.77-4.93-5.6-9.35-8.63a24.19,24.19,0,0,0,9.23-8.5A33.8,33.8,0,0,0,70.39,91.2c.6-3.76.77-12.32,1.46-25.69.25-4.74,1-7.84,2.51-9.29,1.71-1.51,6.19-2.73,13.56-2.73V35.14H83.63c-7.24,0-12.83.65-16.79,1.84a22.42,22.42,0,0,0-9.75,6.27A20.61,20.61,0,0,0,52.42,54a153.75,153.75,0,0,0-1,19.63c0,11.53-1.45,19-4.28,22.33S40,101,34.29,101v18.85c5.74.26,9.56,1.45,11.61,3.88" transform="translate(-4.11 -26.66)"/><path class="cls-1" d="M178.21,245.65h-2.58a14.67,14.67,0,0,1-10.48-4.32,10.87,10.87,0,0,1-9.63,4.85c-7,0-11.91-5.38-11.91-12.33a12.42,12.42,0,0,1,1.48-6.16h-4.32c-4,0-6.48,3.48-6.48,9.22v17.48h-5.9V235.7c0-8.48,4.53-14,12.38-14h14.75c5.26,0,9.63,3,10.95,7.58,2.42,8.32,4.69,10.38,9.11,10.38h2.63Zm-17-11.59c0-3.89-2.32-7-5.95-7-3.37,0-5.64,2.84-5.64,6.74s2.48,6.95,6,6.95C158.89,240.75,161.26,238.07,161.26,234.06Z" transform="translate(-4.11 -26.66)"/><path class="cls-1" d="M187.85,245.65H176.21v-6h11.64Z" transform="translate(-4.11 -26.66)"/><path class="cls-1" d="M186.27,245.65v-6h5.37c3,0,4.48-2.06,4.48-6.22V221.74h5.95v11.48c0,3.11-.32,5.11-.95,6.11v.32h5.48c3,0,4.48-2,4.48-5.85V221.74H217v11.48c0,3.42-.42,5.58-1.21,6.43h5.74c3,0,4.47-2,4.47-5.8V221.74H232v11.38a15.17,15.17,0,0,1-1.31,6.53h9v6Z" transform="translate(-4.11 -26.66)"/><path class="cls-1" d="M280.28,245.65H238v-6h30.44a13,13,0,0,0-2.74-8.38,11,11,0,0,0-9.06-4,11.56,11.56,0,0,0-4.42,1,12.8,12.8,0,0,0-4.74,3.32c-.58-1.11-1.53-2.63-2.85-4.64a20,20,0,0,1,5.64-3.74,17.33,17.33,0,0,1,6.95-1.47,17.89,17.89,0,0,1,9.58,2.53c4.8,2.95,7.43,8.06,7.9,15.38h5.59Z" transform="translate(-4.11 -26.66)"/><path class="cls-1" d="M290.44,245.65H278.8v-6h11.64Z" transform="translate(-4.11 -26.66)"/><path class="cls-1" d="M294.44,216.9h-5.79v-5.85h5.79Zm10.11,19.22c0,6.37-2.95,9.53-8.79,9.53h-6.22v-6h4.95c1.95,0,3.16-.58,3.74-1.74a11.3,11.3,0,0,0,.42-3.79V221.74h5.9Zm-.16-19.22H298.6v-5.85h5.79Z" transform="translate(-4.11 -26.66)"/><path class="cls-1" d="M359,234.06c0,6.9-4.84,12.12-11.79,12.12s-11.9-5.43-11.9-12.27a12.49,12.49,0,0,1,1.47-6.22h-4.32c-4,0-6.48,3.48-6.48,9.22v17.48H320V235.7c0-8.43,4.47-14,12.27-14h14.85C354.16,221.69,359,227.11,359,234.06Zm-6.05,0c0-3.95-2.32-6.95-5.95-6.95s-5.64,2.95-5.64,6.74,2.48,6.9,6,6.9C350.63,240.75,352.9,238,352.9,234.06Z" transform="translate(-4.11 -26.66)"/><path class="cls-1" d="M380,245.65h-6.9a8,8,0,0,1-6.53-2.74,10.18,10.18,0,0,1-2.11-6.84V211.68h5.84v22c0,2.58.58,4.26,1.69,5.05.79.58,2.32.9,4.53.9H380Z" transform="translate(-4.11 -26.66)"/><path class="cls-1" d="M389.76,245.65H378.12v-6h11.64Z" transform="translate(-4.11 -26.66)"/><path class="cls-1" d="M400.19,245.65H388.55v-6h11.64Z" transform="translate(-4.11 -26.66)"/><path class="cls-1" d="M429.63,233.54c0,7-4.74,12.11-11.8,12.11H399.08v-6h8.37a13.33,13.33,0,0,1-1.52-6.27c0-7.16,4.9-12.17,11.9-12.17S429.63,226.64,429.63,233.54Zm-14-16.8h-5.74v-5.85h5.74Zm7.9,16.8c0-4-2.42-6.95-5.95-6.95-3.37,0-5.64,2.63-5.64,6.74,0,3.79,2.43,6.89,6,6.89S423.57,237.43,423.57,233.54Zm2.11-16.8h-5.74v-5.85h5.74Z" transform="translate(-4.11 -26.66)"/><path class="cls-1" d="M446.69,221.74V241c0,9.48-4.16,13.43-13.22,13.43v-5c4.9,0,7.32-2.43,7.32-7.48V221.74Z" transform="translate(-4.11 -26.66)"/><path class="cls-1" d="M461.17,212.89h-9.11v-2.42h2.11a8.87,8.87,0,0,1-.48-1.84,4.12,4.12,0,0,1,4.11-4.27,3.57,3.57,0,0,1,3.32,2.32l-1.9,1a1.34,1.34,0,0,0-1.47-1.16,1.89,1.89,0,0,0-1.79,2,2.11,2.11,0,0,0,1,1.95h4.26Zm15.91-1.21v25.7c0,5-3.58,8.27-9.27,8.27H452.06v-6h8.06l-6.64-24.23h6.22l6.58,24.23a4.81,4.81,0,0,0,3.58-1.16c1-1,1.48-2.69,1.48-5.06V211.68Z" transform="translate(-4.11 -26.66)"/><path class="cls-1" d="M488.4,245.65h-5.85v-34h5.85Z" transform="translate(-4.11 -26.66)"/><rect class="cls-2" x="459.87" y="142.76" width="15.75" height="15.75"/><rect class="cls-2" x="436.35" y="142.76" width="15.75" height="15.75"/><rect class="cls-2" x="458.61" y="142.76" width="15.75" height="15.75"/><rect class="cls-2" x="435.1" y="142.76" width="15.75" height="15.75"/><path class="cls-2" d="M457.36,125c0,9.14-4.41,9.14-6.06,9.14H325.48l.21-.84a36,36,0,0,0,1-8.75V90.47H305.89V126c0,8.22-4.25,8.22-6.06,8.22H287.47l.2-.83a36.87,36.87,0,0,0,1-8.65V90.47H267.85V126c0,8.22-4.25,8.22-6.06,8.22H249.44l.2-.83a37.41,37.41,0,0,0,1-8.65V90.47H229.71v34.91c0,7.32-2.32,8.79-6.06,8.79H201.17l.19-.83a38.13,38.13,0,0,0,.92-8.65V90.47H181.41v34.79c0,8.91-4.24,8.91-6.06,8.91H142.29c-7,0-12-.87-15-2.59-3.55-2-5.35-6.06-5.35-12V90.47H101.08v29.09c0,22.54,13.39,35.46,36.32,35.46H455.54c7.3,0,13.08-2.58,17.19-7.68A24.94,24.94,0,0,0,478.22,131V90.47H457.36Z" transform="translate(-4.11 -26.66)"/><polygon class="cls-2" points="508.91 38.34 508.84 8.45 507.5 8.45 488.18 38.34 488.1 56.64 488.05 128.43 508.85 128.43 508.91 38.34"/><rect class="cls-2" x="392.57" y="22.44" width="15.75" height="15.75"/><rect class="cls-2" x="369.06" y="22.44" width="15.75" height="15.75"/><rect class="cls-2" x="151.4" y="38.18" width="15.75" height="15.75"/><rect class="cls-2" x="127.88" y="38.18" width="15.75" height="15.75"/><path class="cls-2" d="M436.66,134.26a46.41,46.41,0,1,0-90.27-15.16,28.59,28.59,0,0,0,.21,4.07l.06.49,65.1,1.87V124.2l-5.79-2c-14.68-5-36.74-12.45-38.61-14.19,3.76-10,14-16.67,25.44-16.67A27.71,27.71,0,0,1,416,134.26Z" transform="translate(-4.11 -26.66)"/><rect class="cls-2" x="380.82" width="15.75" height="15.75"/><path class="cls-2" d="M9,185.25a.21.21,0,0,1-.24-.24V171.58c0-.09,0-.14-.15-.14H4.35a.21.21,0,0,1-.24-.24v-2.09c0-.17.08-.25.24-.25H16c.16,0,.24.08.24.25v2.09a.21.21,0,0,1-.24.24H11.76a.12.12,0,0,0-.14.14V185a.21.21,0,0,1-.24.24Z" transform="translate(-4.11 -26.66)"/><path class="cls-2" d="M19.71,169.13a.21.21,0,0,1,.24-.24h2.14a.39.39,0,0,1,.41.24L27,179.21h.1l4.43-10.08a.38.38,0,0,1,.4-.24h2.12a.21.21,0,0,1,.24.24V185a.21.21,0,0,1-.24.24H32a.21.21,0,0,1-.24-.24V175h-.1l-3.46,7.7a.48.48,0,0,1-.46.31H26.3a.46.46,0,0,1-.45-.31L22.38,175h-.1v10a.21.21,0,0,1-.24.24H20a.21.21,0,0,1-.24-.24Z" transform="translate(-4.11 -26.66)"/></svg>