<svg width="24" height="24" viewBox="0 0 24 24" fill="none" xmlns="http://www.w3.org/2000/svg">
<path d="M12 1.92C14.6738 1.92 17.2368 2.98219 19.1278 4.87224C21.0178 6.76318 22.08 9.3264 22.08 12C22.08 14.6736 21.0178 17.2368 19.1278 19.1278C17.2368 21.0178 14.6736 22.08 12 22.08C9.3264 22.08 6.7632 21.0178 4.87224 19.1278C2.98224 17.2368 1.92 14.6736 1.92 12C1.92 9.3264 2.98219 6.7632 4.87224 4.87224C6.76318 2.98224 9.3264 1.92 12 1.92V1.92ZM12 0C8.81712 0 5.7648 1.26468 3.5148 3.5148C1.2648 5.76492 0 8.81736 0 12C0 15.1826 1.26468 18.2352 3.5148 20.4852C5.76492 22.7352 8.81736 24 12 24C15.1826 24 18.2352 22.7353 20.4852 20.4852C22.7352 18.2351 24 15.1826 24 12C24 8.81736 22.7353 5.7648 20.4852 3.5148C18.2351 1.2648 15.1826 0 12 0V0Z" fill="#399895"/>
<path d="M12.11 5.63992L12.3688 5.6643C13.0109 5.70461 13.6391 5.86774 14.2194 6.1443C14.7378 6.38242 15.1803 6.76023 15.4962 7.23555C15.7372 7.61055 15.8862 8.03617 15.9303 8.47868C15.9809 8.86213 15.95 9.25119 15.8394 9.62149C15.7025 10.063 15.4644 10.4671 15.1437 10.7999C14.7763 11.1674 14.375 11.4974 13.9437 11.7862C13.7037 11.9521 13.49 12.1246 13.265 12.2971H13.2641C13.0597 12.4659 12.9069 12.6881 12.8206 12.9384C12.7728 13.0678 12.7175 13.1971 12.6669 13.3274C12.5403 13.68 12.2065 13.9171 11.8315 13.92C11.6244 13.9425 11.4144 13.9096 11.2241 13.8243C10.9315 13.6809 10.7281 13.4043 10.6794 13.0828C10.6025 12.6365 10.7066 12.179 10.9672 11.8106C11.1753 11.5068 11.4294 11.2378 11.7209 11.0137C12.035 10.7568 12.3594 10.5122 12.6809 10.2553C12.9481 10.0509 13.1713 9.79589 13.3381 9.50433C13.6044 8.99808 13.5378 8.38214 13.1703 7.94433C12.98 7.73621 12.7278 7.59653 12.4503 7.54589C12.0819 7.45964 11.6975 7.4662 11.3319 7.56464C10.9531 7.6687 10.6372 7.93119 10.4656 8.28464C10.3531 8.49558 10.2547 8.71212 10.1487 8.92589C10.0719 9.08714 9.96686 9.23434 9.83935 9.35996C9.61623 9.5559 9.32186 9.65057 9.02561 9.62151C8.84561 9.61682 8.66935 9.56901 8.51186 9.48276C8.21654 9.32901 8.03093 9.02338 8.03186 8.69057C8.01968 8.15995 8.18936 7.64244 8.51186 7.2215C8.88593 6.71712 9.38093 6.31589 9.95186 6.05525C10.3831 5.85087 10.8444 5.71776 11.3178 5.66151L11.5869 5.63525L12.11 5.63992Z" fill="#399895"/>
<path d="M11.6328 18.3601C11.5606 18.346 11.4884 18.3338 11.419 18.3141C10.7637 18.1426 10.3418 17.5051 10.4412 16.8338C10.5397 16.1626 11.1284 15.6741 11.8062 15.6994C12.484 15.7247 13.0334 16.2563 13.0822 16.9332C13.1309 17.6091 12.6622 18.2138 11.9956 18.3357L11.8784 18.3601L11.6328 18.3601Z" fill="#399895"/>
</svg>
