<svg width="22" height="23" viewBox="0 0 22 23" fill="none" xmlns="http://www.w3.org/2000/svg">
<path d="M7.66087 0.000244141C8.03655 0.12834 8.40022 0.287388 8.74839 0.47567C9.47914 0.9485 9.77403 1.68356 9.78089 2.52864C9.79379 4.10449 9.79379 5.67937 9.78089 7.25363C9.78089 8.28785 9.31665 9.08652 8.37011 9.5293V9.53016C8.01161 9.68491 7.62475 9.76572 7.23443 9.76572C5.67837 9.79237 4.12068 9.78291 2.56446 9.76572C1.26372 9.76572 0.36362 9.03755 0.0533015 7.77206L0.0524417 7.7712C0.0369671 7.73166 0.0197724 7.69297 0 7.65514V2.13323C0.0240728 2.0825 0.0438452 2.03178 0.0576004 1.98106C0.205471 1.38012 0.4694 0.838513 1.00843 0.506669H1.00757C1.37295 0.311516 1.75121 0.142166 2.13894 0.000299162L7.66087 0.000244141Z" fill="#399895"/>
<path d="M0 14.3254C0.145291 13.9377 0.32238 13.5629 0.530448 13.2052C0.931067 12.5992 1.61454 12.2389 2.34185 12.2527C4.01914 12.2355 5.69374 12.2415 7.37122 12.2527H7.37036C8.02375 12.2518 8.64874 12.5158 9.10439 12.9826C9.56088 13.4503 9.80848 14.0822 9.79129 14.7347C9.80247 16.3277 9.81106 17.9232 9.79129 19.5171C9.77152 20.9451 8.80349 21.9578 7.38335 21.9904C5.73529 22.0282 4.08208 22.0256 2.43585 21.9904C1.20388 21.9603 0.374274 21.245 0.0595973 20.0543C0.0467019 20.001 0.0243486 19.9529 0.000277967 19.9048V14.3252L0 14.3254Z" fill="#399895"/>
<path d="M19.8557 0.000187072C20.3018 0.0913152 20.7231 0.278726 21.0902 0.547823C21.6215 0.949301 21.9448 1.56743 21.9705 2.23198C22.0015 3.58774 21.9903 4.94518 21.9946 6.30354V7.34207H21.9955C21.9946 8.00147 21.7264 8.63249 21.2527 9.09071C20.7799 9.54892 20.1402 9.79652 19.4817 9.77676C17.9058 9.77676 16.3301 9.78965 14.7543 9.77676C13.3194 9.7587 12.2937 8.80356 12.2585 7.3884C12.2164 5.72229 12.2207 4.05456 12.2585 2.3883C12.2826 1.17269 13.0228 0.338765 14.2109 0.0481435C14.2522 0.0352478 14.2926 0.0189141 14.3321 0L19.8557 0.000187072Z" fill="#399895"/>
<path d="M21.9859 17.1142C21.9859 17.9946 22.0168 18.8749 21.9859 19.7381V19.7372C21.9438 20.9528 20.968 21.9277 19.7525 21.9691C17.9918 22.0104 16.2311 22.0104 14.4704 21.9691C13.2686 21.9227 12.3066 20.9546 12.267 19.7528C12.2274 17.9922 12.2274 16.2315 12.267 14.4708C12.3039 13.2681 13.2651 12.2983 14.4678 12.2528C16.2285 12.2133 17.9951 12.2133 19.767 12.2528H19.7679C20.9594 12.3078 21.9128 13.2612 21.9687 14.4536C22.0083 15.334 21.9687 16.2143 21.9687 17.0947L21.9859 17.1142Z" fill="#399895"/>
</svg>
