<svg width="36" height="36" viewBox="0 0 36 36" fill="none" xmlns="http://www.w3.org/2000/svg">
<rect width="35.6018" height="35.5963" rx="10" fill="#C4EDEB"/>
<path d="M16.0055 24C17.7956 24.0013 19.5342 23.4 20.9406 22.2913L26.2455 27.5963L27.6018 26.24L22.2968 20.935C23.7956 19.0213 24.3443 16.5299 23.7856 14.1638C23.2281 11.7976 21.6243 9.81377 19.4281 8.77121C17.2319 7.72996 14.6806 7.74372 12.4957 8.80871C10.3107 9.8737 8.7283 11.8737 8.19454 14.2461C7.66203 16.6174 8.23579 19.1025 9.75579 20.9997C11.2745 22.8973 13.5747 24.001 16.0057 23.9998L16.0055 24ZM16.0055 9.92004C17.6181 9.92004 19.1643 10.56 20.3044 11.7013C21.4457 12.8413 22.0857 14.3875 22.0857 16.0002C22.0857 17.6128 21.4457 19.1589 20.3044 20.299C19.1644 21.4403 17.6182 22.0803 16.0055 22.0803C14.3929 22.0803 12.8468 21.4403 11.7067 20.299C10.5654 19.159 9.92542 17.6128 9.92542 16.0002C9.92542 14.3875 10.5654 12.8414 11.7067 11.7013C12.8467 10.56 14.3929 9.92004 16.0055 9.92004Z" fill="#101820"/>
</svg>
