<svg width="19" height="20" viewBox="0 0 19 20" fill="none" xmlns="http://www.w3.org/2000/svg">
<path d="M13.4569 10.3165C14.6246 9.27141 15.3168 7.79702 15.3756 6.23128C15.4332 4.66555 14.8524 3.14361 13.7648 2.01599C12.6784 0.888317 11.179 0.25 9.61201 0.25C8.04499 0.25 6.54561 0.888317 5.4592 2.01599C4.37157 3.14367 3.79083 4.66561 3.84841 6.23128C3.90723 7.79702 4.59938 9.27141 5.76711 10.3165C4.15632 10.881 2.76078 11.9311 1.77194 13.3216C0.784441 14.7134 0.252499 16.3767 0.25 18.0825C0.25 18.6282 0.691811 19.07 1.23625 19.07C1.78194 19.07 2.22375 18.6282 2.22375 18.0825C2.225 16.4216 2.88584 14.8284 4.06109 13.6532C5.23635 12.4779 6.82836 11.8171 8.49042 11.8158H10.7583C12.4204 11.8171 14.0136 12.4779 15.1889 13.6532C16.3629 14.8284 17.0238 16.4217 17.0263 18.0825C17.0263 18.6282 17.4681 19.07 18.0125 19.07C18.5582 19.07 19 18.6282 19 18.0825C18.995 16.3728 18.4593 14.707 17.4668 13.3164C16.473 11.9247 15.0725 10.8758 13.4566 10.3164L13.4569 10.3165ZM9.61201 2.2736C11.1389 2.2736 12.5145 3.19353 13.099 4.60406C13.6835 6.01459 13.3606 7.63794 12.2805 8.71682C11.2016 9.79695 9.57827 10.1199 8.1677 9.53537C6.75717 8.95088 5.83725 7.57536 5.83725 6.04836C5.83725 3.96446 7.52689 2.27363 9.61198 2.27363L9.61201 2.2736Z" fill="#399895"/>
</svg>
