<svg width="36" height="36" viewBox="0 0 36 36" fill="none" xmlns="http://www.w3.org/2000/svg">
    <rect y="0.20166" width="35.6018" height="35.5963" rx="10" fill="#C4EDEB" />
    <path
        d="M16.0055 24.2017C17.7956 24.203 19.5342 23.6017 20.9406 22.493L26.2455 27.7979L27.6018 26.4417L22.2968 21.1367C23.7956 19.2229 24.3443 16.7316 23.7856 14.3655C23.2281 11.9993 21.6243 10.0154 19.4281 8.97287C17.2319 7.93162 14.6806 7.94538 12.4957 9.01037C10.3107 10.0754 8.7283 12.0754 8.19454 14.4478C7.66203 16.8191 8.23579 19.3041 9.75579 21.2014C11.2745 23.0989 13.5747 24.2027 16.0057 24.2014L16.0055 24.2017ZM16.0055 10.1217C17.6181 10.1217 19.1643 10.7617 20.3044 11.9029C21.4457 13.0429 22.0857 14.5892 22.0857 16.2018C22.0857 17.8145 21.4457 19.3606 20.3044 20.5007C19.1644 21.642 17.6182 22.282 16.0055 22.282C14.3929 22.282 12.8468 21.642 11.7067 20.5007C10.5654 19.3607 9.92542 17.8145 9.92542 16.2018C9.92542 14.5892 10.5654 13.0431 11.7067 11.9029C12.8467 10.7617 14.3929 10.1217 16.0055 10.1217Z"
        fill="#101820" />
</svg>