<svg width="32" height="32" viewBox="0 0 32 32" fill="none" xmlns="http://www.w3.org/2000/svg">
<path d="M16 32C11.7562 32 7.6864 30.3138 4.6864 27.3136C1.6864 24.3134 0 20.2435 0 16C0 11.7565 1.68624 7.6864 4.6864 4.6864C7.68656 1.6864 11.7565 0 16 0C20.2435 0 24.3136 1.68624 27.3136 4.6864C30.3136 7.68656 32 11.7565 32 16C32 20.2435 30.3138 24.3136 27.3136 27.3136C24.3134 30.3136 20.2435 32 16 32ZM16 2C12.2874 2 8.7264 3.47501 6.09984 6.09984C3.47485 8.72608 2 12.2874 2 16C2 19.7126 3.47501 23.2736 6.09984 25.9002C8.72608 28.5252 12.2874 30 16 30C19.7126 30 23.2736 28.525 25.9002 25.9002C28.5252 23.2739 30 19.7126 30 16C30 12.2874 28.525 8.7264 25.9002 6.09984C23.2739 3.47485 19.7126 2 16 2Z" fill="#16A2A0"/>
<path d="M13.7103 23.7099L12.3003 22.2999L18.5902 15.9997L12.29 9.70979L13.7 8.2998L20.7 15.2998C21.0875 15.6898 21.0875 16.3198 20.7 16.7098L13.7103 23.7099Z" fill="#16A2A0"/>
</svg>
