<svg width="20" height="20" viewBox="0 0 20 20" fill="none" xmlns="http://www.w3.org/2000/svg">
<path d="M10 0C4.48652 0 0 4.48562 0 10C0 15.5144 4.48652 20 10 20C15.5135 20 20 15.5144 20 10C20 4.48562 15.5135 0 10 0ZM10 18.8764C5.10539 18.8764 1.1236 14.8946 1.1236 10C1.1236 5.10539 5.10539 1.1236 10 1.1236C14.8946 1.1236 18.8764 5.10539 18.8764 10C18.8764 14.8946 14.8946 18.8764 10 18.8764ZM10.5618 9.76135V2.99685C10.5618 2.68611 10.3107 2.43506 10 2.43506C9.68926 2.43506 9.4382 2.68611 9.4382 2.99685V10C9.4382 10.1527 9.50053 10.2993 9.61113 10.4047L13.4691 14.1125C13.578 14.217 13.7184 14.2697 13.858 14.2697C14.0055 14.2697 14.1529 14.2117 14.2635 14.0967C14.4786 13.8729 14.4716 13.5174 14.2477 13.3023L10.5618 9.76135Z" fill="#444444"/>
</svg>
