<svg width="20" height="20" viewBox="0 0 20 20" fill="none" xmlns="http://www.w3.org/2000/svg">
<path d="M18.8 14.8346H18V3.6002C18 3.26974 17.7305 3.0002 17.4 3.0002H2.6C2.26954 3.0002 2 3.26974 2 3.6002V14.8346H1.2V3.6002C1.2 2.82832 1.82812 2.2002 2.6 2.2002H17.4C18.1719 2.2002 18.8 2.82832 18.8 3.6002V14.8346ZM16.8 14.4002H20V15.2002H16.8V14.4002ZM0 14.4002H14.2V15.2002H0V14.4002ZM12.2188 9.33922L18.4282 18.1696L17.7735 18.6298L11.5641 9.79938L12.2188 9.33922ZM5 7.60016H15V8.40016H5V7.60016ZM5 5.60016H15V6.40016H5V5.60016ZM5 9.60016H9.2V10.4002H5V9.60016Z" fill="#444444"/>
</svg>
