<svg width="24" height="24" viewBox="0 0 24 24" fill="none" xmlns="http://www.w3.org/2000/svg">
    <path fill-rule="evenodd" clip-rule="evenodd"
        d="M12.2963 2.87864C7.09467 2.87864 2.87864 7.09467 2.87864 12.2963C2.87864 17.4978 7.09467 21.7139 12.2963 21.7139C17.4978 21.7139 21.7139 17.4978 21.7139 12.2963C21.7139 7.09467 17.4978 2.87864 12.2963 2.87864ZM1.5 12.2963C1.5 6.33327 6.33327 1.5 12.2963 1.5C18.2592 1.5 23.0925 6.33327 23.0925 12.2963C23.0925 18.2592 18.2592 23.0925 12.2963 23.0925C6.33327 23.0925 1.5 18.2592 1.5 12.2963Z"
        fill="#11807E" />
    <path fill-rule="evenodd" clip-rule="evenodd"
        d="M10.3564 5.38408C9.72798 7.1199 9.32591 9.56358 9.32591 12.2963C9.32591 15.0289 9.72798 17.4726 10.3564 19.2084C10.6716 20.0792 11.0308 20.7353 11.3949 21.1607C11.7612 21.5886 12.068 21.7139 12.2954 21.7139C12.5229 21.7139 12.8297 21.5886 13.196 21.1607C13.5601 20.7353 13.9193 20.0792 14.2345 19.2084C14.8629 17.4726 15.265 15.0289 15.265 12.2963C15.265 9.56358 14.8629 7.1199 14.2345 5.38408C13.9193 4.51329 13.5601 3.8572 13.196 3.43176C12.8297 3.00387 12.5229 2.87864 12.2954 2.87864C12.068 2.87864 11.7612 3.00387 11.3949 3.43176C11.0308 3.8572 10.6716 4.51329 10.3564 5.38408ZM10.3476 2.53528C10.8568 1.94035 11.5125 1.5 12.2954 1.5C13.0784 1.5 13.7341 1.94035 14.2433 2.53528C14.7547 3.13266 15.1839 3.95662 15.5308 4.91478C16.2266 6.83685 16.6436 9.44664 16.6436 12.2963C16.6436 15.1459 16.2266 17.7556 15.5308 19.6777C15.1839 20.6359 14.7547 21.4598 14.2433 22.0572C13.7341 22.6521 13.0784 23.0925 12.2954 23.0925C11.5125 23.0925 10.8568 22.6521 10.3476 22.0572C9.83623 21.4598 9.40695 20.6359 9.06007 19.6777C8.36424 17.7556 7.94727 15.1459 7.94727 12.2963C7.94727 9.44664 8.36424 6.83685 9.06007 4.91478C9.40695 3.95662 9.83623 3.13266 10.3476 2.53528Z"
        fill="#11807E" />
    <path fill-rule="evenodd" clip-rule="evenodd"
        d="M2.14648 9.06188C2.14648 8.68118 2.4551 8.37256 2.8358 8.37256H21.7159C22.0966 8.37256 22.4052 8.68118 22.4052 9.06188C22.4052 9.44258 22.0966 9.7512 21.7159 9.7512H2.8358C2.4551 9.7512 2.14648 9.44258 2.14648 9.06188Z"
        fill="#11807E" />
    <path fill-rule="evenodd" clip-rule="evenodd"
        d="M2.14648 15.5311C2.14648 15.1504 2.4551 14.8418 2.8358 14.8418H21.7159C22.0966 14.8418 22.4052 15.1504 22.4052 15.5311C22.4052 15.9118 22.0966 16.2204 21.7159 16.2204H2.8358C2.4551 16.2204 2.14648 15.9118 2.14648 15.5311Z"
        fill="#11807E" />
</svg>