<svg width="130" height="48" viewBox="0 0 130 48" fill="none" xmlns="http://www.w3.org/2000/svg">
    <path
        d="M120.65 14.0183C120.173 13.4819 119.863 12.8846 119.668 12.2583C119.476 11.602 119.401 10.0215 119.401 7.53098C119.401 5.32315 119.148 3.74342 118.686 2.77213C118.256 1.7886 117.499 1.08777 116.473 0.655187C115.446 0.222965 114.007 0 112.099 0H111.164V4.14982C112.651 4.14982 113.574 4.26892 113.931 4.47779C114.273 4.70113 114.524 5.02598 114.598 5.32315C114.702 5.62143 114.828 6.46377 114.867 8.79796C114.901 10.8717 115.03 12.2583 115.164 12.9896C115.298 13.7494 115.579 14.4361 115.984 15.0928C116.383 15.719 117.097 16.3597 118.094 17.045C117.142 17.5829 116.442 18.2385 116.011 18.9694C115.579 19.7318 115.283 20.5213 115.12 21.3861C114.986 22.2368 114.948 24.1757 114.792 27.2023C114.737 28.2757 114.57 28.9757 114.226 29.3059C113.84 29.6465 112.829 29.9238 111.164 29.9238V34.0777H112.132C113.767 34.0777 115.03 33.9297 115.923 33.6615C116.827 33.3472 117.558 32.885 118.123 32.2424C118.686 31.5861 119.043 30.7654 119.178 29.8123C119.311 28.8414 119.401 27.3522 119.401 25.3688C119.401 22.7584 119.729 21.0559 120.367 20.3124C121.021 19.5378 121.975 19.1642 123.269 19.1642V14.8976C121.975 14.8394 121.112 14.5693 120.65 14.0183"
        fill="#16A2A0" />
    <path
        d="M2.61913 20.0594C3.09628 20.5959 3.40662 21.1932 3.60081 21.8194C3.79351 22.4757 3.86823 24.0562 3.86823 26.5467C3.86823 28.7546 4.12086 30.3343 4.58321 31.3056C5.01301 32.2891 5.77053 32.99 6.79622 33.4225C7.82337 33.8548 9.26259 34.0777 11.1701 34.0777H12.1051V29.9279C10.6186 29.9279 9.69534 29.8088 9.33841 29.5999C8.9959 29.3766 8.74474 29.0518 8.67077 28.7546C8.56683 28.4563 8.44123 27.614 8.4026 25.2798C8.36829 23.206 8.23948 21.8194 8.10521 21.0882C7.97132 20.3284 7.68984 19.6416 7.28557 18.985C6.88572 18.3587 6.17222 17.718 5.17538 17.0327C6.12709 16.4948 6.82691 15.8392 7.25782 15.1084C7.68984 14.3459 7.98649 13.5564 8.14886 12.6916C8.28276 11.8409 8.32129 9.90198 8.47732 6.87543C8.53265 5.80206 8.69962 5.10204 9.04286 4.77184C9.42902 4.43126 10.4407 4.15392 12.1051 4.15392V0H11.1371C9.50189 0 8.23948 0.148037 7.34659 0.416268C6.44186 0.730513 5.71134 1.19277 5.14653 1.83536C4.58321 2.49166 4.22664 3.31232 4.09163 4.26542C3.95811 5.23634 3.86822 6.72555 3.86822 8.70892C3.86822 11.3193 3.54014 13.0218 2.90172 13.7653C2.24814 14.54 1.29423 14.9136 0 14.9136V19.1801C1.29423 19.2384 2.15715 19.5084 2.61913 20.0594"
        fill="#16A2A0" />
    <mask id="path-3-inside-1_354_1077" fill="white">
        <path
            d="M65.4266 27.1582C59.6484 27.1582 54.9473 22.4428 54.9473 16.647C54.9473 10.851 59.6484 6.13574 65.4266 6.13574C71.2049 6.13574 75.9062 10.851 75.9062 16.647C75.9062 17.0552 75.902 17.1796 75.858 17.569L75.8455 17.6799L61.1442 18.1046V17.8037L62.4531 17.3582C65.767 16.232 70.7497 14.539 71.1718 14.1444C70.3218 11.885 68.0167 10.3689 65.4266 10.3689C61.9753 10.3689 59.1678 13.1853 59.1678 16.647C59.1678 20.1085 61.9753 22.9248 65.4266 22.9248C67.6432 22.9248 69.6493 21.7864 70.7932 19.8793L70.8305 19.8171H75.4194L75.363 19.9863C73.9303 24.2759 69.9372 27.1582 65.4266 27.1582Z" />
    </mask>
    <path
        d="M65.4266 27.1582C59.6484 27.1582 54.9473 22.4428 54.9473 16.647C54.9473 10.851 59.6484 6.13574 65.4266 6.13574C71.2049 6.13574 75.9062 10.851 75.9062 16.647C75.9062 17.0552 75.902 17.1796 75.858 17.569L75.8455 17.6799L61.1442 18.1046V17.8037L62.4531 17.3582C65.767 16.232 70.7497 14.539 71.1718 14.1444C70.3218 11.885 68.0167 10.3689 65.4266 10.3689C61.9753 10.3689 59.1678 13.1853 59.1678 16.647C59.1678 20.1085 61.9753 22.9248 65.4266 22.9248C67.6432 22.9248 69.6493 21.7864 70.7932 19.8793L70.8305 19.8171H75.4194L75.363 19.9863C73.9303 24.2759 69.9372 27.1582 65.4266 27.1582Z"
        fill="#072A38" />
    <path
        d="M75.858 17.569L76.8517 17.6815L76.8517 17.6812L75.858 17.569ZM75.8455 17.6799L75.8744 18.6794L76.7415 18.6544L76.8391 17.7924L75.8455 17.6799ZM61.1442 18.1046H60.1442V19.134L61.173 19.1042L61.1442 18.1046ZM61.1442 17.8037L60.822 16.857L60.1442 17.0876V17.8037H61.1442ZM62.4531 17.3582L62.1313 16.4114L62.1309 16.4115L62.4531 17.3582ZM71.1718 14.1444L71.8546 14.875L72.3432 14.4183L72.1077 13.7923L71.1718 14.1444ZM70.7932 19.8793L71.6508 20.3937L71.6509 20.3935L70.7932 19.8793ZM70.8305 19.8171V18.8171H70.2641L69.9728 19.3029L70.8305 19.8171ZM75.4194 19.8171L76.368 20.1334L76.8069 18.8171H75.4194V19.8171ZM75.363 19.9863L76.3115 20.3031L76.3116 20.3026L75.363 19.9863ZM65.4266 26.1582C60.2035 26.1582 55.9473 21.8934 55.9473 16.647H53.9473C53.9473 22.9922 59.0933 28.1582 65.4266 28.1582V26.1582ZM55.9473 16.647C55.9473 11.4004 60.2035 7.13574 65.4266 7.13574V5.13574C59.0933 5.13574 53.9473 10.3016 53.9473 16.647H55.9473ZM65.4266 7.13574C70.6498 7.13574 74.9062 11.4004 74.9062 16.647H76.9062C76.9062 10.3015 71.76 5.13574 65.4266 5.13574V7.13574ZM74.9062 16.647C74.9062 17.0266 74.9032 17.1125 74.8644 17.4567L76.8517 17.6812C76.9008 17.2466 76.9062 17.0838 76.9062 16.647H74.9062ZM74.8644 17.4565L74.8518 17.5673L76.8391 17.7924L76.8517 17.6815L74.8644 17.4565ZM75.8166 16.6803L61.1153 17.1051L61.173 19.1042L75.8744 18.6794L75.8166 16.6803ZM62.1442 18.1046V17.8037H60.1442V18.1046H62.1442ZM61.4663 18.7503L62.7752 18.3049L62.1309 16.4115L60.822 16.857L61.4663 18.7503ZM62.7749 18.305C64.4298 17.7426 66.5122 17.035 68.234 16.4184C69.0939 16.1105 69.8737 15.8217 70.4695 15.5829C70.7662 15.4639 71.0291 15.3527 71.238 15.2543C71.342 15.2053 71.4437 15.1543 71.5345 15.1028C71.6092 15.0603 71.7386 14.9835 71.8546 14.875L70.4889 13.4139C70.5522 13.3547 70.5932 13.3373 70.5469 13.3636C70.5167 13.3807 70.4648 13.4077 70.3857 13.445C70.2284 13.5191 70.0069 13.6136 69.7253 13.7265C69.1646 13.9512 68.4125 14.2301 67.5597 14.5355C65.8562 15.1456 63.7903 15.8476 62.1313 16.4114L62.7749 18.305ZM72.1077 13.7923C71.0976 11.1073 68.3936 9.36889 65.4266 9.36889V11.3689C67.6398 11.3689 69.5459 12.6626 70.2358 14.4965L72.1077 13.7923ZM65.4266 9.36889C61.4201 9.36889 58.1678 12.6359 58.1678 16.647H60.1678C60.1678 13.7346 62.5305 11.3689 65.4266 11.3689V9.36889ZM58.1678 16.647C58.1678 20.658 61.4202 23.9248 65.4266 23.9248V21.9248C62.5305 21.9248 60.1678 19.5591 60.1678 16.647H58.1678ZM65.4266 23.9248C67.9959 23.9248 70.3268 22.6008 71.6508 20.3937L69.9357 19.3649C68.9717 20.9719 67.2904 21.9248 65.4266 21.9248V23.9248ZM71.6509 20.3935L71.6882 20.3313L69.9728 19.3029L69.9356 19.3651L71.6509 20.3935ZM70.8305 20.8171H75.4194V18.8171H70.8305V20.8171ZM74.4707 19.5008L74.4143 19.67L76.3116 20.3026L76.368 20.1334L74.4707 19.5008ZM74.4145 19.6696C73.1176 23.5526 69.5054 26.1582 65.4266 26.1582V28.1582C70.369 28.1582 74.7431 24.9993 76.3115 20.3031L74.4145 19.6696Z"
        fill="#072A38" mask="url(#path-3-inside-1_354_1077)" />
    <mask id="path-5-inside-2_354_1077" fill="white">
        <path
            d="M23.8272 27.1582C18.0488 27.1582 13.3477 22.4428 13.3477 16.647C13.3477 10.851 18.0488 6.13574 23.8272 6.13574C29.6056 6.13574 34.3066 10.851 34.3066 16.647C34.3066 17.0561 34.3024 17.1804 34.2586 17.569L34.246 17.6799L19.5448 18.1046L19.5446 17.8037L20.8522 17.3589C24.1667 16.2324 29.1501 14.539 29.5723 14.1444C28.7221 11.885 26.4171 10.3689 23.8272 10.3689C20.3759 10.3689 17.5682 13.1853 17.5682 16.647C17.5682 20.1085 20.3759 22.9248 23.8272 22.9248C26.0436 22.9248 28.0497 21.7864 29.1938 19.8793L29.2312 19.8171H33.8199L33.7634 19.9863C32.3309 24.2759 28.3378 27.1582 23.8272 27.1582" />
    </mask>
    <path
        d="M23.8272 27.1582C18.0488 27.1582 13.3477 22.4428 13.3477 16.647C13.3477 10.851 18.0488 6.13574 23.8272 6.13574C29.6056 6.13574 34.3066 10.851 34.3066 16.647C34.3066 17.0561 34.3024 17.1804 34.2586 17.569L34.246 17.6799L19.5448 18.1046L19.5446 17.8037L20.8522 17.3589C24.1667 16.2324 29.1501 14.539 29.5723 14.1444C28.7221 11.885 26.4171 10.3689 23.8272 10.3689C20.3759 10.3689 17.5682 13.1853 17.5682 16.647C17.5682 20.1085 20.3759 22.9248 23.8272 22.9248C26.0436 22.9248 28.0497 21.7864 29.1938 19.8793L29.2312 19.8171H33.8199L33.7634 19.9863C32.3309 24.2759 28.3378 27.1582 23.8272 27.1582"
        fill="#072A38" />
    <path
        d="M34.2586 17.569L35.2522 17.6816L35.2523 17.6811L34.2586 17.569ZM34.246 17.6799L34.2749 18.6794L35.142 18.6544L35.2397 17.7924L34.246 17.6799ZM19.5448 18.1046L18.5448 18.1056L18.5458 19.1339L19.5737 19.1042L19.5448 18.1046ZM19.5446 17.8037L19.2226 16.8569L18.5439 17.0877L18.5446 17.8046L19.5446 17.8037ZM20.8522 17.3589L20.5304 16.4121L20.5303 16.4122L20.8522 17.3589ZM29.5723 14.1444L30.2551 14.8751L30.7438 14.4184L30.5082 13.7923L29.5723 14.1444ZM29.1938 19.8793L28.337 19.3637L28.3363 19.3649L29.1938 19.8793ZM29.2312 19.8171V18.8171H28.6659L28.3744 19.3015L29.2312 19.8171ZM33.8199 19.8171L34.7683 20.1342L35.2086 18.8171H33.8199V19.8171ZM33.7634 19.9863L32.815 19.6693L32.8149 19.6696L33.7634 19.9863ZM23.8272 26.1582C18.6039 26.1582 14.3477 21.8934 14.3477 16.647H12.3477C12.3477 22.9923 17.4937 28.1582 23.8272 28.1582V26.1582ZM14.3477 16.647C14.3477 11.4004 18.6039 7.13574 23.8272 7.13574V5.13574C17.4937 5.13574 12.3477 10.3015 12.3477 16.647H14.3477ZM23.8272 7.13574C29.0504 7.13574 33.3066 11.4004 33.3066 16.647H35.3066C35.3066 10.3016 30.1607 5.13574 23.8272 5.13574V7.13574ZM33.3066 16.647C33.3066 17.0276 33.3036 17.1135 33.2649 17.4568L35.2523 17.6811C35.3012 17.2473 35.3066 17.0845 35.3066 16.647H33.3066ZM33.2649 17.4564L33.2524 17.5673L35.2397 17.7924L35.2522 17.6816L33.2649 17.4564ZM34.2171 16.6803L19.516 17.1051L19.5737 19.1042L34.2749 18.6794L34.2171 16.6803ZM20.5448 18.1037L20.5446 17.8027L18.5446 17.8046L18.5448 18.1056L20.5448 18.1037ZM19.8665 18.7504L21.1742 18.3057L20.5303 16.4122L19.2226 16.8569L19.8665 18.7504ZM21.174 18.3058C22.8293 17.7432 24.9119 17.0354 26.634 16.4186C27.494 16.1106 28.274 15.8218 28.8699 15.5829C29.1666 15.464 29.4295 15.3527 29.6385 15.2543C29.7425 15.2053 29.8442 15.1543 29.935 15.1028C30.0097 15.0604 30.139 14.9835 30.2551 14.8751L28.8895 13.4138C28.9528 13.3547 28.9937 13.3373 28.9475 13.3636C28.9173 13.3807 28.8653 13.4077 28.7862 13.445C28.6289 13.5191 28.4073 13.6136 28.1257 13.7265C27.5648 13.9514 26.8126 14.2303 25.9597 14.5358C24.2559 15.146 22.1896 15.8482 20.5304 16.4121L21.174 18.3058ZM30.5082 13.7923C29.498 11.1073 26.794 9.36889 23.8272 9.36889V11.3689C26.0401 11.3689 27.9463 12.6626 28.6364 14.4966L30.5082 13.7923ZM23.8272 9.36889C19.8207 9.36889 16.5682 12.6359 16.5682 16.647H18.5682C18.5682 13.7347 20.931 11.3689 23.8272 11.3689V9.36889ZM16.5682 16.647C16.5682 20.658 19.8208 23.9248 23.8272 23.9248V21.9248C20.931 21.9248 18.5682 19.5591 18.5682 16.647H16.5682ZM23.8272 23.9248C26.3963 23.9248 28.7272 22.6008 30.0513 20.3938L28.3363 19.3649C27.3721 20.9719 25.6908 21.9248 23.8272 21.9248V23.9248ZM30.0506 20.395L30.088 20.3328L28.3744 19.3015L28.337 19.3637L30.0506 20.395ZM29.2312 20.8171H33.8199V18.8171H29.2312V20.8171ZM32.8715 19.5001L32.815 19.6693L34.7118 20.3034L34.7683 20.1342L32.8715 19.5001ZM32.8149 19.6696C31.5181 23.5526 27.906 26.1582 23.8272 26.1582V28.1582C28.7696 28.1582 33.1436 24.9993 34.7119 20.3031L32.8149 19.6696Z"
        fill="#072A38" mask="url(#path-5-inside-2_354_1077)" />
    <path
        d="M44.5327 18.3768L45.0043 19.3637L45.442 18.3613L50.2633 7.3208H54.9428L44.8127 26.3284L34.2023 7.3208H39.2491L44.5327 18.3768Z"
        fill="#072A38" stroke="#072A38" />
    <mask id="path-8-inside-3_354_1077" fill="white">
        <path
            d="M104.444 27.269C102.516 27.269 101.331 26.6722 100.077 25.4951C98.8082 24.3237 98.165 22.7866 98.165 20.9266L98.1813 11.0069H94.666V6.86185H98.2002L102.563 0.0922852H102.865L102.881 6.86185H108.718V11.0069H102.881L102.865 20.298C102.865 22.0796 103.431 23.1012 104.917 23.1012C105.947 23.1012 106.881 22.78 107.48 22.1193L107.506 22.0918L109.898 24.4912L109.881 24.5157C108.577 26.4455 106.851 27.269 104.444 27.269Z" />
    </mask>
    <path
        d="M104.444 27.269C102.516 27.269 101.331 26.6722 100.077 25.4951C98.8082 24.3237 98.165 22.7866 98.165 20.9266L98.1813 11.0069H94.666V6.86185H98.2002L102.563 0.0922852H102.865L102.881 6.86185H108.718V11.0069H102.881L102.865 20.298C102.865 22.0796 103.431 23.1012 104.917 23.1012C105.947 23.1012 106.881 22.78 107.48 22.1193L107.506 22.0918L109.898 24.4912L109.881 24.5157C108.577 26.4455 106.851 27.269 104.444 27.269Z"
        fill="#072A38" />
    <path
        d="M100.077 25.4951L100.761 24.7658L100.755 24.7604L100.077 25.4951ZM98.165 20.9266L97.165 20.9249V20.9266H98.165ZM98.1813 11.0069L99.1813 11.0085L99.183 10.0069H98.1813V11.0069ZM94.666 11.0069H93.666V12.0069H94.666V11.0069ZM94.666 6.86185V5.86185H93.666V6.86185H94.666ZM98.2002 6.86185V7.86185H98.7454L99.0408 7.40353L98.2002 6.86185ZM102.563 0.0922852V-0.907715H102.017L101.722 -0.44939L102.563 0.0922852ZM102.865 0.0922852L103.865 0.0898798L103.862 -0.907715H102.865V0.0922852ZM102.881 6.86185L101.881 6.86426L101.883 7.86185H102.881V6.86185ZM108.718 6.86185H109.718V5.86185H108.718V6.86185ZM108.718 11.0069V12.0069H109.718V11.0069H108.718ZM102.881 11.0069V10.0069H101.883L101.881 11.0051L102.881 11.0069ZM102.865 20.298L101.865 20.2963V20.298H102.865ZM107.48 22.1193L106.742 21.4447L106.74 21.4476L107.48 22.1193ZM107.506 22.0918L108.214 21.3857L107.474 20.6439L106.767 21.4171L107.506 22.0918ZM109.898 24.4912L110.726 25.0516L111.188 24.3689L110.606 23.7852L109.898 24.4912ZM109.881 24.5157L109.053 23.9553L109.053 23.9559L109.881 24.5157ZM104.444 26.269C103.588 26.269 102.948 26.1376 102.401 25.9038C101.849 25.6682 101.336 25.3049 100.761 24.7659L99.3925 26.2244C100.073 26.8624 100.779 27.3861 101.615 27.7431C102.456 28.1021 103.372 28.269 104.444 28.269V26.269ZM100.755 24.7604C99.7087 23.7941 99.165 22.5317 99.165 20.9266H97.165C97.165 23.0415 97.9077 24.8533 99.3983 26.2298L100.755 24.7604ZM99.165 20.9282L99.1813 11.0085L97.1813 11.0052L97.165 20.9249L99.165 20.9282ZM98.1813 10.0069H94.666V12.0069H98.1813V10.0069ZM95.666 11.0069V6.86185H93.666V11.0069H95.666ZM94.666 7.86185H98.2002V5.86185H94.666V7.86185ZM99.0408 7.40353L103.403 0.63396L101.722 -0.44939L97.3596 6.32018L99.0408 7.40353ZM102.563 1.09229H102.865V-0.907715H102.563V1.09229ZM101.865 0.0946906L101.881 6.86426L103.881 6.85945L103.865 0.0898798L101.865 0.0946906ZM102.881 7.86185H108.718V5.86185H102.881V7.86185ZM107.718 6.86185V11.0069H109.718V6.86185H107.718ZM108.718 10.0069H102.881V12.0069H108.718V10.0069ZM101.881 11.0051L101.865 20.2963L103.865 20.2998L103.881 11.0086L101.881 11.0051ZM101.865 20.298C101.865 21.2588 102.011 22.2054 102.509 22.9327C103.059 23.736 103.914 24.1012 104.917 24.1012V22.1012C104.435 22.1012 104.264 21.9556 104.159 21.8027C104.002 21.5739 103.865 21.1188 103.865 20.298H101.865ZM104.917 24.1012C106.135 24.1012 107.378 23.7216 108.221 22.7909L106.74 21.4476C106.385 21.8384 105.759 22.1012 104.917 22.1012V24.1012ZM108.219 22.7939L108.244 22.7664L106.767 21.4171L106.742 21.4447L108.219 22.7939ZM106.797 22.7978L109.19 25.1973L110.606 23.7852L108.214 21.3857L106.797 22.7978ZM109.07 23.9308L109.053 23.9553L110.709 25.0761L110.726 25.0516L109.07 23.9308ZM109.053 23.9559C108.482 24.8004 107.849 25.3623 107.13 25.7214C106.405 26.083 105.533 26.269 104.444 26.269V28.269C105.762 28.269 106.956 28.0433 108.023 27.5107C109.095 26.9756 109.977 26.1609 110.71 25.0756L109.053 23.9559Z"
        fill="#072A38" mask="url(#path-8-inside-3_354_1077)" />
    <path
        d="M78.2586 23.9941L79.7944 21.929C82.0998 24.1005 84.9136 24.414 86.7928 23.7305C87.778 23.3722 88.5899 22.7019 88.8218 21.7914C89.0629 20.8446 88.6269 19.8585 87.5833 19.0055L87.5667 18.992L87.549 18.9799C87.0733 18.6548 86.3271 18.3513 85.6398 18.1089C84.9428 17.8629 84.2521 17.6615 83.8432 17.548C81.0904 16.6804 79.1295 14.9634 78.981 12.3908C78.9929 10.3168 80.0603 8.50853 81.9727 7.50818C83.5011 6.75902 85.4215 6.50677 87.3178 6.72281C89.0507 6.92024 90.7256 7.50451 92.0267 8.41385L90.6373 10.5854C89.8484 9.99063 88.8563 9.51456 87.8394 9.28241C86.6203 9.0041 85.289 9.06152 84.2318 9.78801L84.2318 9.78801L84.2299 9.78933C83.487 10.3049 82.9784 11.0554 82.9059 11.8586C82.8307 12.6911 83.2339 13.4791 84.1083 13.9914C84.6139 14.3239 85.2578 14.5964 85.9325 14.8412C86.4086 15.014 86.9233 15.1808 87.4351 15.3467C87.6546 15.4178 87.8736 15.4888 88.0888 15.56C88.8167 15.8009 89.5146 16.0483 90.1201 16.3317C90.7299 16.617 91.2102 16.9226 91.5278 17.2628L91.5277 17.2629L91.5359 17.2714C92.2874 18.0394 92.6851 19.0675 92.6857 20.3719C92.6608 22.4028 91.8566 23.9653 90.5536 25.0191C89.2399 26.0817 87.3801 26.6572 85.2118 26.6165L85.2105 26.6847L85.2008 26.6164C82.6416 26.6244 79.9753 25.7393 78.2586 23.9941Z"
        fill="#072A38" stroke="#072A38" />
    <mask id="path-11-inside-4_354_1077" fill="white">
        <path
            d="M124.295 34.004C124.259 34.004 124.241 33.9859 124.241 33.9497V30.9095C124.241 30.8877 124.231 30.8766 124.209 30.8766H123.242C123.206 30.8766 123.188 30.8585 123.188 30.8218V30.3487C123.188 30.3121 123.206 30.2939 123.242 30.2939H125.882C125.918 30.2939 125.936 30.3121 125.936 30.3487V30.8218C125.936 30.8585 125.918 30.8766 125.882 30.8766H124.915C124.893 30.8766 124.882 30.8877 124.882 30.9095V33.9497C124.882 33.9859 124.864 34.004 124.828 34.004H124.295Z" />
    </mask>
    <path
        d="M124.295 33.004C124.432 33.004 124.718 33.0391 124.963 33.2845C125.207 33.5292 125.241 33.8145 125.241 33.9497H123.241C123.241 34.1211 123.284 34.4336 123.547 34.6964C123.809 34.9599 124.122 35.004 124.295 35.004V33.004ZM125.241 33.9497V30.9095H123.241V33.9497H125.241ZM125.241 30.9095C125.241 30.7494 125.202 30.4446 124.947 30.1848C124.689 29.9214 124.379 29.8766 124.209 29.8766V31.8766C124.06 31.8766 123.767 31.8374 123.519 31.5849C123.275 31.3361 123.241 31.0478 123.241 30.9095H125.241ZM124.209 29.8766H123.242V31.8766H124.209V29.8766ZM123.242 29.8766C123.379 29.8766 123.666 29.9117 123.911 30.1588C124.155 30.4043 124.188 30.6894 124.188 30.8218H122.188C122.188 30.9909 122.229 31.3034 122.491 31.5671C122.754 31.8324 123.069 31.8766 123.242 31.8766V29.8766ZM124.188 30.8218V30.3487H122.188V30.8218H124.188ZM124.188 30.3487C124.188 30.4811 124.155 30.7663 123.911 31.0118C123.666 31.2588 123.379 31.2939 123.242 31.2939V29.2939C123.069 29.2939 122.754 29.3382 122.491 29.6034C122.229 29.8671 122.188 30.1796 122.188 30.3487H124.188ZM123.242 31.2939H125.882V29.2939H123.242V31.2939ZM125.882 31.2939C125.745 31.2939 125.457 31.2588 125.212 31.0119C124.969 30.7664 124.936 30.4813 124.936 30.3487H126.936C126.936 30.1795 126.894 29.867 126.632 29.6033C126.369 29.3381 126.055 29.2939 125.882 29.2939V31.2939ZM124.936 30.3487V30.8218H126.936V30.3487H124.936ZM124.936 30.8218C124.936 30.6892 124.969 30.4041 125.212 30.1586C125.457 29.9117 125.745 29.8766 125.882 29.8766V31.8766C126.055 31.8766 126.369 31.8324 126.632 31.5673C126.894 31.3036 126.936 30.9911 126.936 30.8218H124.936ZM125.882 29.8766H124.915V31.8766H125.882V29.8766ZM124.915 29.8766C124.745 29.8766 124.434 29.9213 124.176 30.1849C123.921 30.4447 123.882 30.7495 123.882 30.9095H125.882C125.882 31.0478 125.848 31.3361 125.604 31.5849C125.357 31.8374 125.063 31.8766 124.915 31.8766V29.8766ZM123.882 30.9095V33.9497H125.882V30.9095H123.882ZM123.882 33.9497C123.882 33.8145 123.916 33.5292 124.16 33.2844C124.405 33.0391 124.691 33.004 124.828 33.004V35.004C125.001 35.004 125.314 34.9599 125.577 34.6965C125.839 34.4336 125.882 34.1211 125.882 33.9497H123.882ZM124.828 33.004H124.295V35.004H124.828V33.004Z"
        fill="#072A38" mask="url(#path-11-inside-4_354_1077)" />
    <mask id="path-13-inside-5_354_1077" fill="white">
        <path
            d="M126.709 30.3541C126.709 30.3178 126.727 30.2993 126.763 30.2993H127.247C127.294 30.2993 127.325 30.3178 127.339 30.3541L128.355 32.6366H128.376L129.376 30.3541C129.39 30.3178 129.421 30.2993 129.468 30.2993H129.946C129.982 30.2993 130 30.3178 130 30.3541V33.9499C130 33.9861 129.982 34.0042 129.946 34.0042H129.474C129.438 34.0042 129.419 33.9861 129.419 33.9499V31.6833H129.398L128.615 33.4268C128.594 33.4741 128.559 33.4974 128.512 33.4974H128.197C128.15 33.4974 128.116 33.4741 128.094 33.4268L127.312 31.6833H127.29V33.9499C127.29 33.9861 127.272 34.0042 127.236 34.0042H126.763C126.727 34.0042 126.709 33.9861 126.709 33.9499V30.3541Z" />
    </mask>
    <path
        d="M127.339 30.3541L126.409 30.7229L126.417 30.7419L126.425 30.7606L127.339 30.3541ZM128.355 32.6366L127.441 33.0431L127.705 33.6366H128.355V32.6366ZM128.376 32.6366V33.6366H129.03L129.292 33.0377L128.376 32.6366ZM129.376 30.3541L130.292 30.7552L130.299 30.7391L130.305 30.7229L129.376 30.3541ZM129.419 31.6833H130.419V30.6833H129.419V31.6833ZM129.398 31.6833V30.6833H128.75L128.485 31.2739L129.398 31.6833ZM128.615 33.4268L129.524 33.8443L129.528 33.8361L128.615 33.4268ZM128.094 33.4268L127.181 33.8361L127.185 33.8443L128.094 33.4268ZM127.312 31.6833L128.224 31.2739L127.959 30.6833H127.312V31.6833ZM127.29 31.6833V30.6833H126.29V31.6833H127.29ZM127.709 30.3541C127.709 30.4894 127.675 30.772 127.434 31.0156C127.191 31.2616 126.905 31.2993 126.763 31.2993V29.2993C126.585 29.2993 126.272 29.3463 126.011 29.6106C125.752 29.8725 125.709 30.1824 125.709 30.3541H127.709ZM126.763 31.2993H127.247V29.2993H126.763V31.2993ZM127.247 31.2993C127.143 31.2993 126.973 31.279 126.794 31.1726C126.603 31.0588 126.476 30.8909 126.409 30.7229L128.268 29.9853C128.187 29.7809 128.038 29.5857 127.816 29.4536C127.606 29.3289 127.397 29.2993 127.247 29.2993V31.2993ZM126.425 30.7606L127.441 33.0431L129.268 32.23L128.253 29.9475L126.425 30.7606ZM128.355 33.6366H128.376V31.6366H128.355V33.6366ZM129.292 33.0377L130.292 30.7552L128.46 29.9529L127.46 32.2355L129.292 33.0377ZM130.305 30.7229C130.24 30.888 130.115 31.0568 129.922 31.172C129.742 31.2795 129.571 31.2993 129.468 31.2993V29.2993C129.318 29.2993 129.109 29.3284 128.898 29.4542C128.674 29.5877 128.526 29.7839 128.446 29.9853L130.305 30.7229ZM129.468 31.2993H129.946V29.2993H129.468V31.2993ZM129.946 31.2993C129.804 31.2993 129.518 31.2616 129.275 31.0156C129.035 30.7719 129 30.4894 129 30.3541H131C131 30.1825 130.957 29.8726 130.698 29.6106C130.438 29.3463 130.124 29.2993 129.946 29.2993V31.2993ZM129 30.3541V33.9499H131V30.3541H129ZM129 33.9499C129 33.8145 129.035 33.5292 129.279 33.2845C129.523 33.0393 129.809 33.0042 129.946 33.0042V35.0042C130.119 35.0042 130.432 34.9601 130.695 34.6968C130.957 34.434 131 34.1215 131 33.9499H129ZM129.946 33.0042H129.474V35.0042H129.946V33.0042ZM129.474 33.0042C129.61 33.0042 129.897 33.0393 130.141 33.2847C130.385 33.5294 130.419 33.8147 130.419 33.9499H128.419C128.419 34.1213 128.463 34.4337 128.725 34.6966C128.987 34.9601 129.301 35.0042 129.474 35.0042V33.0042ZM130.419 33.9499V31.6833H128.419V33.9499H130.419ZM129.419 30.6833H129.398V32.6833H129.419V30.6833ZM128.485 31.2739L127.703 33.0174L129.528 33.8361L130.31 32.0926L128.485 31.2739ZM127.707 33.0092C127.753 32.9088 127.844 32.7673 128.009 32.6541C128.181 32.5369 128.364 32.4974 128.512 32.4974V34.4974C128.708 34.4974 128.931 34.4463 129.137 34.3056C129.337 34.169 129.456 33.9921 129.524 33.8443L127.707 33.0092ZM128.512 32.4974H128.197V34.4974H128.512V32.4974ZM128.197 32.4974C128.346 32.4974 128.528 32.5369 128.7 32.6541C128.866 32.7673 128.956 32.9088 129.003 33.0092L127.185 33.8443C127.253 33.9921 127.372 34.169 127.572 34.3056C127.778 34.4463 128.001 34.4974 128.197 34.4974V32.4974ZM129.006 33.0174L128.224 31.2739L126.399 32.0926L127.182 33.8361L129.006 33.0174ZM127.312 30.6833H127.29V32.6833H127.312V30.6833ZM126.29 31.6833V33.9499H128.29V31.6833H126.29ZM126.29 33.9499C126.29 33.8147 126.324 33.5294 126.568 33.2846C126.813 33.0393 127.099 33.0042 127.236 33.0042V35.0042C127.409 35.0042 127.722 34.9601 127.985 34.6967C128.247 34.4338 128.29 34.1213 128.29 33.9499H126.29ZM127.236 33.0042H126.763V35.0042H127.236V33.0042ZM126.763 33.0042C126.9 33.0042 127.186 33.0393 127.431 33.2845C127.675 33.5292 127.709 33.8145 127.709 33.9499H125.709C125.709 34.1215 125.752 34.4339 126.014 34.6968C126.277 34.9601 126.59 35.0042 126.763 35.0042V33.0042ZM127.709 33.9499V30.3541H125.709V33.9499H127.709Z"
        fill="#072A38" mask="url(#path-13-inside-5_354_1077)" />
    <path
        d="M32.42 43H34.184L35.192 40.634H39.826L40.82 43H42.64L38.328 33.13H36.732L32.42 43ZM35.822 39.108L37.502 35.188L39.196 39.108H35.822ZM47.1851 43.168C48.6271 43.168 49.4811 42.594 50.2091 41.782L49.1871 40.774C48.6551 41.32 48.0671 41.684 47.2691 41.684C45.9671 41.684 45.0571 40.634 45.0571 39.318V39.29C45.0571 38.002 45.9671 36.938 47.1991 36.938C48.0391 36.938 48.5851 37.316 49.1031 37.862L50.1671 36.728C49.4671 35.972 48.5991 35.454 47.2131 35.454C44.9871 35.454 43.3631 37.218 43.3631 39.318V39.346C43.3631 41.446 44.9871 43.168 47.1851 43.168ZM53.8951 43.154C55.0291 43.154 55.7991 42.678 56.3031 42.076V43H57.9551V38.618C57.9551 37.652 57.7031 36.868 57.1571 36.336C56.6391 35.804 55.8131 35.51 54.7071 35.51C53.5311 35.51 52.7331 35.748 51.9211 36.112L52.3691 37.442C53.0411 37.162 53.6571 36.98 54.4831 36.98C55.6731 36.98 56.3171 37.54 56.3171 38.59V38.772C55.7431 38.59 55.1551 38.464 54.3291 38.464C52.5231 38.464 51.2771 39.248 51.2771 40.844V40.872C51.2771 42.356 52.5091 43.154 53.8951 43.154ZM54.3711 41.922C53.5591 41.922 52.9291 41.516 52.9291 40.802V40.774C52.9291 40.004 53.5731 39.542 54.6651 39.542C55.3371 39.542 55.9111 39.668 56.3451 39.836V40.34C56.3451 41.278 55.4911 41.922 54.3711 41.922ZM63.0359 43.154C64.2399 43.154 65.0099 42.538 65.5559 41.768V43H67.2499V32.78H65.5559V36.756C65.0239 36.056 64.2539 35.454 63.0359 35.454C61.2719 35.454 59.6059 36.84 59.6059 39.29V39.318C59.6059 41.768 61.2999 43.154 63.0359 43.154ZM63.4419 41.684C62.2939 41.684 61.3139 40.746 61.3139 39.318V39.29C61.3139 37.82 62.2799 36.924 63.4419 36.924C64.5759 36.924 65.5839 37.862 65.5839 39.29V39.318C65.5839 40.732 64.5759 41.684 63.4419 41.684ZM72.7645 43.168C74.1225 43.168 75.0885 42.622 75.7885 41.782L74.7945 40.9C74.2065 41.474 73.6185 41.782 72.7925 41.782C71.7005 41.782 70.8465 41.11 70.6645 39.906H76.0965C76.1105 39.738 76.1245 39.584 76.1245 39.43C76.1245 37.302 74.9345 35.454 72.5825 35.454C70.4685 35.454 68.9705 37.19 68.9705 39.304V39.332C68.9705 41.614 70.6225 43.168 72.7645 43.168ZM70.6505 38.786C70.8045 37.638 71.5325 36.84 72.5685 36.84C73.6885 36.84 74.3325 37.694 74.4445 38.786H70.6505ZM77.8257 43H79.5197V38.828C79.5197 37.694 80.1637 36.994 81.1017 36.994C82.0397 36.994 82.5997 37.638 82.5997 38.786V43H84.2937V38.828C84.2937 37.638 84.9517 36.994 85.8757 36.994C86.8277 36.994 87.3737 37.624 87.3737 38.8V43H89.0677V38.282C89.0677 36.476 88.0877 35.454 86.4777 35.454C85.3577 35.454 84.5737 35.972 83.9857 36.756C83.5937 35.972 82.8377 35.454 81.7737 35.454C80.6397 35.454 79.9957 36.07 79.5197 36.728V35.608H77.8257V43ZM94.1294 41.096L92.0434 35.608H90.2234L93.3034 43.014C93.0234 43.644 92.7294 43.854 92.2534 43.854C91.9034 43.854 91.5674 43.742 91.2594 43.574L90.6854 44.834C91.2034 45.114 91.7354 45.282 92.4354 45.282C93.6254 45.282 94.2834 44.722 94.8714 43.21L97.8114 35.608H96.0474L94.1294 41.096Z"
        fill="#16A2A0" />
</svg>