<svg width="24" height="24" viewBox="0 0 24 24" fill="none" xmlns="http://www.w3.org/2000/svg">
    <path
        d="M15.4569 12.3165C16.6246 11.2714 17.3168 9.79702 17.3756 8.23128C17.4332 6.66555 16.8524 5.14361 15.7648 4.01599C14.6784 2.88832 13.179 2.25 11.612 2.25C10.045 2.25 8.54561 2.88832 7.4592 4.01599C6.37157 5.14367 5.79083 6.66561 5.84841 8.23128C5.90723 9.79702 6.59938 11.2714 7.76711 12.3165C6.15632 12.881 4.76078 13.9311 3.77194 15.3216C2.78444 16.7134 2.2525 18.3767 2.25 20.0825C2.25 20.6282 2.69181 21.07 3.23625 21.07C3.78194 21.07 4.22375 20.6282 4.22375 20.0825C4.225 18.4216 4.88584 16.8284 6.06109 15.6532C7.23635 14.4779 8.82836 13.8171 10.4904 13.8158H12.7583C14.4204 13.8171 16.0136 14.4779 17.1889 15.6532C18.3629 16.8284 19.0238 18.4217 19.0263 20.0825C19.0263 20.6282 19.4681 21.07 20.0125 21.07C20.5582 21.07 21 20.6282 21 20.0825C20.995 18.3728 20.4593 16.707 19.4668 15.3164C18.473 13.9247 17.0725 12.8758 15.4566 12.3164L15.4569 12.3165ZM11.612 4.2736C13.1389 4.2736 14.5145 5.19353 15.099 6.60406C15.6835 8.01459 15.3606 9.63794 14.2805 10.7168C13.2016 11.7969 11.5783 12.1199 10.1677 11.5354C8.75717 10.9509 7.83725 9.57536 7.83725 8.04836C7.83725 5.96446 9.52689 4.27363 11.612 4.27363L11.612 4.2736Z"
        fill="#11807E" />
</svg>